<svg xmlns="http://www.w3.org/2000/svg" xmlns:xlink="http://www.w3.org/1999/xlink" width="144" zoomAndPan="magnify" viewBox="0 0 108 107.999999" height="144" preserveAspectRatio="xMidYMid meet" version="1.0"><defs><clipPath id="92b52cca6c"><path d="M 19.300781 6 L 62 6 L 62 71 L 19.300781 71 Z M 19.300781 6 " clip-rule="nonzero"/></clipPath><clipPath id="40bcec36d9"><path d="M 58 4.519531 L 85 4.519531 L 85 21 L 58 21 Z M 58 4.519531 " clip-rule="nonzero"/></clipPath><clipPath id="e9d5d39915"><path d="M 79.195312 13.507812 L 88.972656 13.507812 L 88.972656 52.101562 L 79.195312 52.101562 Z M 79.195312 13.507812 " clip-rule="nonzero"/></clipPath><clipPath id="a1cf2959c4"><path d="M 53.675781 100.40625 L 60.433594 100.40625 L 60.433594 103.503906 L 53.675781 103.503906 Z M 53.675781 100.40625 " clip-rule="nonzero"/></clipPath></defs><path fill="#040606" d="M 28.390625 58.101562 C 28.476562 58.078125 28.554688 58.085938 28.632812 58.128906 C 28.757812 58.195312 28.871094 58.351562 28.921875 58.527344 C 28.980469 58.746094 28.996094 58.984375 29.007812 59.21875 C 29.015625 59.339844 29.023438 59.460938 29.035156 59.582031 C 29.203125 61.089844 29.738281 62.574219 30.585938 63.867188 C 30.648438 63.964844 30.75 64.027344 30.855469 64.035156 C 30.867188 64.035156 30.875 64.035156 30.882812 64.035156 C 30.976562 64.035156 31.0625 64 31.125 63.929688 C 31.277344 63.765625 31.242188 63.5 31.128906 63.328125 C 30.347656 62.128906 29.867188 60.765625 29.75 59.382812 C 29.742188 59.320312 29.738281 59.257812 29.734375 59.191406 C 29.683594 58.566406 29.628906 57.855469 29.050781 57.429688 C 28.789062 57.238281 28.484375 57.171875 28.195312 57.246094 C 27.890625 57.324219 27.632812 57.550781 27.484375 57.867188 C 27.128906 58.640625 27.542969 59.40625 27.992188 60.054688 C 28.058594 60.148438 28.164062 60.210938 28.269531 60.21875 C 28.371094 60.222656 28.460938 60.1875 28.53125 60.109375 C 28.683594 59.945312 28.652344 59.675781 28.535156 59.503906 C 28.515625 59.480469 28.5 59.457031 28.480469 59.429688 C 28.3125 59.1875 28.117188 58.914062 28.089844 58.628906 C 28.070312 58.425781 28.1875 58.164062 28.390625 58.101562 " fill-opacity="1" fill-rule="nonzero"/><path fill="#040606" d="M 86.941406 53.054688 C 86.007812 53.023438 85.101562 53.515625 84.566406 54.335938 C 84.296875 54.75 84.117188 55.195312 83.992188 55.671875 C 84.058594 51.121094 82.730469 46.648438 81.398438 42.828125 C 81.03125 41.769531 80.628906 40.6875 80.210938 39.617188 L 80.5625 39.570312 C 80.679688 39.554688 80.769531 39.472656 80.816406 39.355469 C 80.878906 39.183594 80.84375 38.960938 80.738281 38.847656 L 79.308594 37.257812 L 79.324219 37.257812 C 79.457031 37.242188 79.554688 37.15625 79.59375 37.019531 C 79.648438 36.828125 79.574219 36.566406 79.4375 36.464844 L 78.011719 35.371094 C 77.8125 35.214844 77.640625 35.292969 77.554688 35.40625 C 77.414062 35.585938 77.414062 35.921875 77.625 36.082031 L 78.226562 36.542969 C 78.1875 36.578125 78.15625 36.625 78.136719 36.679688 C 78.070312 36.84375 78.105469 37.074219 78.210938 37.191406 L 79.652344 38.792969 L 79.582031 38.800781 C 79.484375 38.8125 79.410156 38.867188 79.359375 38.949219 C 79.269531 39.101562 79.296875 39.3125 79.339844 39.417969 C 80.277344 41.765625 81.039062 43.90625 81.664062 45.964844 C 82.433594 48.503906 82.894531 50.632812 83.117188 52.65625 C 83.257812 53.945312 83.292969 55.234375 83.222656 56.476562 C 83.210938 56.75 83.410156 56.933594 83.605469 56.941406 C 83.609375 56.941406 83.617188 56.941406 83.621094 56.941406 C 83.671875 56.941406 83.726562 56.929688 83.773438 56.90625 C 83.75 57.101562 83.726562 57.300781 83.707031 57.503906 C 83.6875 57.699219 83.742188 57.945312 83.957031 58.042969 C 84.050781 58.085938 84.160156 58.082031 84.253906 58.027344 C 84.351562 57.972656 84.417969 57.875 84.429688 57.761719 C 84.59375 56.105469 84.90625 54.308594 86.546875 53.972656 C 87.128906 53.855469 87.824219 54.035156 88.058594 54.703125 C 88.28125 55.339844 88.09375 56.097656 87.929688 56.765625 C 87.90625 56.847656 87.886719 56.925781 87.871094 57.003906 C 87.648438 57.925781 87.425781 58.863281 87.210938 59.769531 C 86.476562 62.886719 85.714844 66.105469 84.855469 69.246094 L 84.820312 69.367188 C 84.597656 70.1875 84.347656 71.113281 83.683594 71.671875 C 83.203125 72.078125 82.242188 72.3125 81.773438 71.761719 C 81.59375 71.554688 81.398438 71.59375 81.289062 71.6875 C 81.277344 71.695312 81.269531 71.707031 81.261719 71.714844 C 81.386719 71.21875 81.503906 70.714844 81.617188 70.210938 C 81.675781 69.941406 81.476562 69.683594 81.265625 69.636719 C 81.132812 69.609375 80.953125 69.667969 80.898438 69.921875 C 80.195312 73.148438 79.117188 76.289062 77.699219 79.253906 C 77.59375 79.472656 76.539062 81.617188 74.875 83.144531 C 74.261719 83.707031 73.824219 84.085938 73.773438 84.128906 C 71.945312 85.671875 70.042969 87.167969 68.113281 88.582031 C 67.980469 88.679688 67.847656 88.777344 67.714844 88.875 C 66.023438 90.117188 64.269531 91.402344 62.359375 92.296875 C 61.277344 92.804688 60.195312 93.113281 59.140625 93.21875 C 58.089844 93.324219 56.929688 93.242188 55.695312 92.976562 C 53.480469 92.496094 51.375 91.523438 49.34375 90.582031 L 49.03125 90.4375 C 47.015625 89.503906 45.058594 88.570312 43.246094 87.351562 C 41.449219 86.144531 39.945312 84.699219 38.78125 83.058594 C 36.386719 79.691406 35.226562 75.65625 34.242188 71.808594 C 34.113281 71.292969 33.980469 70.773438 33.871094 70.332031 C 33.820312 70.121094 33.648438 69.933594 33.425781 69.976562 C 33.339844 69.992188 33.269531 70.042969 33.21875 70.121094 C 33.152344 70.222656 33.128906 70.367188 33.160156 70.492188 C 33.984375 73.804688 34.917969 77.558594 36.632812 80.925781 C 36.511719 81.058594 36.519531 81.273438 36.578125 81.433594 C 37.941406 85.402344 38.484375 89.742188 38.144531 93.980469 C 38.050781 95.15625 37.878906 96.367188 37.632812 97.582031 C 37.59375 97.78125 37.675781 98.039062 37.878906 98.132812 C 37.972656 98.175781 38.070312 98.175781 38.15625 98.132812 C 38.253906 98.082031 38.328125 97.984375 38.351562 97.867188 C 39.222656 93.554688 39.183594 89 38.246094 84.699219 C 38.125 84.136719 37.980469 83.566406 37.820312 82.992188 C 38.898438 84.636719 40.199219 86.054688 41.691406 87.222656 C 43.574219 88.6875 45.671875 89.769531 47.480469 90.632812 L 47.730469 90.753906 C 49.789062 91.738281 51.914062 92.757812 54.125 93.445312 C 56.765625 94.269531 59.15625 94.351562 61.226562 93.695312 C 63.425781 92.996094 65.339844 91.632812 67.191406 90.320312 L 67.285156 90.25 C 69.285156 88.828125 71.261719 87.316406 73.160156 85.757812 C 73.386719 85.570312 73.625 85.371094 73.898438 85.144531 C 73.695312 89.140625 73.871094 93.183594 74.425781 97.164062 C 74.589844 98.363281 74.796875 99.585938 75.035156 100.800781 C 75.082031 101.039062 75.25 101.152344 75.410156 101.152344 C 75.429688 101.152344 75.453125 101.148438 75.472656 101.144531 C 75.652344 101.109375 75.808594 100.929688 75.753906 100.65625 C 74.917969 96.445312 74.515625 92.140625 74.554688 87.863281 C 74.566406 86.757812 74.605469 85.621094 74.679688 84.484375 C 75.125 84.101562 77.0625 82.378906 77.777344 80.914062 C 78.917969 78.578125 80.296875 75.128906 80.921875 72.972656 C 81 72.699219 81.074219 72.421875 81.148438 72.140625 C 81.164062 72.207031 81.195312 72.269531 81.246094 72.328125 C 81.597656 72.738281 82.105469 72.957031 82.65625 72.957031 C 82.933594 72.957031 83.222656 72.902344 83.503906 72.789062 C 84.25 72.488281 84.824219 71.796875 85.207031 70.734375 C 85.5 69.925781 85.714844 69.078125 85.917969 68.253906 C 85.972656 68.039062 86.027344 67.828125 86.082031 67.617188 C 86.332031 66.632812 86.59375 65.59375 86.917969 64.242188 C 87.308594 62.636719 87.699219 61 88.078125 59.421875 C 88.238281 58.742188 88.402344 58.0625 88.5625 57.386719 L 88.601562 57.234375 C 88.800781 56.410156 89.027344 55.476562 88.789062 54.601562 C 88.542969 53.6875 87.816406 53.082031 86.941406 53.054688 " fill-opacity="1" fill-rule="nonzero"/><path fill="#040606" d="M 85.292969 61.351562 C 85.101562 61.792969 84.910156 62.242188 84.722656 62.679688 C 84.3125 63.644531 83.890625 64.644531 83.441406 65.609375 C 83.351562 65.800781 83.023438 66.445312 82.550781 66.59375 C 82.371094 66.648438 82.199219 66.625 82.019531 66.519531 C 81.9375 66.472656 81.847656 66.46875 81.761719 66.503906 C 81.65625 66.550781 81.570312 66.660156 81.542969 66.78125 C 81.492188 66.992188 81.589844 67.222656 81.777344 67.332031 C 81.976562 67.449219 82.183594 67.5 82.386719 67.5 C 82.984375 67.5 83.558594 67.050781 83.894531 66.476562 C 84.082031 66.160156 84.226562 65.8125 84.367188 65.480469 C 84.410156 65.375 84.453125 65.265625 84.5 65.164062 L 85.742188 62.296875 C 85.78125 62.210938 85.820312 62.121094 85.859375 62.035156 C 86.023438 61.675781 86.191406 61.300781 86.25 60.90625 C 86.316406 60.441406 86.175781 59.960938 85.875 59.628906 C 85.617188 59.335938 85.257812 59.183594 84.867188 59.191406 C 84.46875 59.199219 84.125 59.390625 83.902344 59.730469 C 83.636719 60.136719 83.582031 60.6875 83.765625 61.132812 C 83.8125 61.246094 83.90625 61.339844 84.015625 61.375 C 84.105469 61.40625 84.195312 61.398438 84.277344 61.351562 C 84.472656 61.238281 84.492188 60.972656 84.414062 60.773438 C 84.324219 60.5625 84.425781 60.394531 84.492188 60.3125 C 84.632812 60.140625 84.867188 60.046875 85.066406 60.085938 C 85.238281 60.117188 85.449219 60.230469 85.511719 60.40625 C 85.601562 60.652344 85.457031 60.980469 85.335938 61.246094 C 85.320312 61.28125 85.304688 61.316406 85.292969 61.351562 " fill-opacity="1" fill-rule="nonzero"/><path fill="#040606" d="M 62.90625 52.296875 C 62.820312 52.222656 62.703125 52.195312 62.597656 52.222656 C 62.5 52.246094 62.417969 52.316406 62.378906 52.414062 C 61.429688 54.757812 61.253906 57.414062 61.886719 59.894531 C 62.199219 61.117188 62.703125 62.285156 63.386719 63.359375 C 63.554688 63.625 63.738281 63.894531 63.917969 64.152344 C 64.449219 64.921875 65 65.71875 65.238281 66.609375 C 65.507812 67.617188 65.355469 68.902344 64.402344 69.503906 C 64.289062 69.578125 64.226562 69.710938 64.230469 69.875 C 64.238281 70.0625 64.339844 70.246094 64.476562 70.3125 C 64.523438 70.335938 64.570312 70.347656 64.617188 70.347656 C 64.675781 70.347656 64.734375 70.332031 64.792969 70.296875 C 65.640625 69.757812 66.128906 68.703125 66.097656 67.484375 C 66.0625 66.1875 65.425781 65.058594 64.742188 64.03125 C 64.644531 63.882812 64.542969 63.738281 64.445312 63.59375 C 64.1875 63.210938 63.917969 62.820312 63.6875 62.414062 C 63.378906 61.882812 63.109375 61.296875 62.886719 60.675781 C 62.46875 59.515625 62.257812 58.28125 62.25 57.003906 C 62.246094 55.574219 62.511719 54.1875 63.035156 52.886719 C 63.121094 52.679688 63.066406 52.429688 62.90625 52.296875 " fill-opacity="1" fill-rule="nonzero"/><path fill="#040606" d="M 52.886719 64.585938 C 53.21875 63.875 53.5625 63.144531 53.742188 62.363281 C 53.976562 61.34375 53.910156 60.390625 53.546875 59.605469 C 53.453125 59.40625 53.316406 59.363281 53.246094 59.359375 C 53.128906 59.347656 53.011719 59.40625 52.9375 59.511719 C 52.84375 59.644531 52.832031 59.816406 52.902344 59.972656 C 53.542969 61.355469 52.832031 62.863281 52.203125 64.195312 C 52.117188 64.382812 52.03125 64.558594 51.953125 64.734375 C 51.378906 66.007812 50.816406 67.667969 51.59375 69.242188 C 51.96875 70.003906 52.554688 70.515625 53.289062 70.714844 C 53.320312 70.722656 53.347656 70.726562 53.378906 70.726562 C 53.511719 70.726562 53.613281 70.644531 53.652344 70.496094 C 53.722656 70.25 53.601562 69.910156 53.34375 69.839844 C 52.117188 69.503906 51.820312 67.964844 52 66.976562 C 52.15625 66.136719 52.527344 65.347656 52.886719 64.585938 " fill-opacity="1" fill-rule="nonzero"/><path fill="#040606" d="M 60.648438 68.65625 C 60.179688 68.875 59.695312 69.101562 59.199219 69.046875 C 58.78125 69 58.488281 68.714844 58.175781 68.414062 C 58.03125 68.277344 57.882812 68.136719 57.722656 68.019531 C 57.226562 67.65625 56.617188 67.441406 56.003906 67.414062 C 55.285156 67.382812 54.585938 67.582031 54.027344 67.976562 C 53.914062 68.058594 53.855469 68.203125 53.871094 68.378906 C 53.886719 68.535156 53.972656 68.726562 54.125 68.796875 C 54.222656 68.839844 54.332031 68.828125 54.425781 68.761719 C 54.992188 68.359375 55.695312 68.210938 56.398438 68.34375 C 56.761719 68.410156 57.09375 68.554688 57.363281 68.753906 C 57.515625 68.867188 57.652344 68.996094 57.792969 69.132812 C 57.925781 69.257812 58.0625 69.390625 58.210938 69.503906 C 58.574219 69.785156 58.953125 69.929688 59.34375 69.9375 C 59.355469 69.9375 59.367188 69.9375 59.375 69.9375 C 59.824219 69.9375 60.242188 69.789062 60.589844 69.644531 C 60.710938 69.59375 60.832031 69.539062 60.960938 69.480469 C 61.589844 69.191406 62.238281 68.890625 62.832031 69.210938 C 62.996094 69.296875 63.160156 69.253906 63.246094 69.097656 C 63.359375 68.882812 63.300781 68.519531 63.070312 68.394531 C 62.542969 68.117188 61.90625 68.132812 61.117188 68.445312 C 60.960938 68.507812 60.804688 68.582031 60.648438 68.65625 " fill-opacity="1" fill-rule="nonzero"/><path fill="#040606" d="M 59.851562 78.433594 C 60.222656 78.417969 60.601562 78.394531 60.964844 78.371094 C 61.6875 78.324219 62.433594 78.277344 63.167969 78.316406 C 64.371094 78.382812 65.308594 78.667969 66.027344 79.1875 C 64.4375 80.582031 62.386719 81.507812 60.246094 81.796875 C 58.148438 82.074219 55.925781 81.695312 53.988281 80.726562 C 52.972656 80.21875 52.046875 79.550781 51.230469 78.75 C 52.765625 77.855469 54.609375 77.988281 56.523438 78.214844 C 57.695312 78.355469 58.753906 78.46875 59.851562 78.433594 Z M 60.453125 77.519531 C 59.363281 77.582031 58.238281 77.539062 56.914062 77.378906 L 56.828125 77.371094 C 55.789062 77.246094 54.714844 77.113281 53.648438 77.175781 C 53.230469 77.203125 52.832031 77.257812 52.457031 77.339844 C 53.910156 76.371094 55.59375 75.71875 57.363281 75.449219 C 59.75 75.082031 62.058594 75.421875 63.863281 76.40625 C 64.691406 76.855469 65.363281 77.4375 65.839844 78.109375 C 64.8125 77.566406 63.675781 77.429688 62.515625 77.429688 C 61.910156 77.429688 61.300781 77.464844 60.695312 77.503906 Z M 66.617188 79.804688 C 66.671875 79.753906 66.710938 79.6875 66.726562 79.613281 C 66.742188 79.621094 66.761719 79.625 66.777344 79.632812 C 66.804688 79.652344 66.835938 79.671875 66.867188 79.683594 C 66.96875 79.726562 67.078125 79.71875 67.167969 79.664062 C 67.261719 79.609375 67.324219 79.515625 67.335938 79.402344 L 67.363281 79.164062 C 67.390625 78.957031 67.328125 78.777344 67.199219 78.675781 C 67.117188 78.613281 67.027344 78.585938 66.941406 78.597656 C 66.933594 78.5625 66.921875 78.527344 66.90625 78.492188 C 66.046875 76.5625 64.039062 75.15625 61.40625 74.644531 C 59.070312 74.183594 56.511719 74.457031 54.203125 75.414062 C 52.925781 75.941406 51.746094 76.683594 50.691406 77.621094 C 50.691406 77.621094 50.6875 77.625 50.6875 77.625 C 50.566406 77.605469 50.417969 77.554688 50.3125 77.421875 C 50.210938 77.289062 50.058594 77.238281 49.914062 77.289062 C 49.765625 77.339844 49.675781 77.492188 49.679688 77.667969 L 49.691406 78.101562 C 49.695312 78.308594 49.820312 78.546875 50.046875 78.574219 C 50.167969 78.59375 50.28125 78.535156 50.351562 78.433594 C 50.335938 78.523438 50.34375 78.628906 50.378906 78.726562 C 50.414062 78.824219 50.46875 78.90625 50.535156 78.957031 C 50.542969 79.085938 50.601562 79.222656 50.699219 79.320312 C 52.277344 80.925781 54.371094 82.066406 56.601562 82.535156 C 57.359375 82.691406 58.125 82.769531 58.890625 82.769531 C 60.390625 82.769531 61.894531 82.472656 63.332031 81.878906 C 64.523438 81.386719 65.628906 80.6875 66.617188 79.804688 " fill-opacity="1" fill-rule="nonzero"/><path fill="#040606" d="M 62.640625 82.703125 C 60.191406 83.476562 57.519531 83.453125 55.121094 82.632812 C 54.996094 82.589844 54.875 82.609375 54.785156 82.6875 C 54.675781 82.78125 54.625 82.964844 54.660156 83.140625 C 54.691406 83.300781 54.785156 83.417969 54.917969 83.460938 C 56.257812 83.917969 57.664062 84.148438 59.066406 84.148438 C 60.351562 84.148438 61.628906 83.957031 62.847656 83.570312 C 62.972656 83.53125 63.066406 83.425781 63.097656 83.285156 C 63.136719 83.101562 63.078125 82.886719 62.949219 82.773438 C 62.863281 82.691406 62.753906 82.667969 62.640625 82.703125 " fill-opacity="1" fill-rule="nonzero"/><path fill="#040606" d="M 37.464844 47.792969 C 37.953125 46.636719 38.640625 45.628906 39.460938 44.863281 C 40.183594 44.1875 41.191406 43.605469 42.183594 43.605469 C 42.546875 43.605469 42.90625 43.683594 43.25 43.859375 C 43.335938 43.902344 43.429688 43.90625 43.519531 43.863281 C 43.621094 43.816406 43.699219 43.714844 43.722656 43.59375 L 43.792969 43.257812 C 45.886719 44.152344 48.179688 44.457031 50.4375 44.144531 C 50.933594 44.652344 51.609375 44.691406 52.265625 44.730469 C 52.683594 44.753906 53.113281 44.78125 53.480469 44.933594 C 54.128906 45.191406 54.449219 45.84375 54.480469 46.972656 C 52.480469 45.984375 50.179688 45.996094 47.953125 46.007812 C 47.796875 46.007812 47.636719 46.011719 47.480469 46.011719 C 45.121094 46.019531 42.613281 46.078125 40.1875 46.734375 C 39.207031 47 38.292969 47.355469 37.464844 47.792969 Z M 36.648438 49.25 C 36.675781 49.257812 36.703125 49.261719 36.726562 49.261719 C 36.839844 49.261719 36.941406 49.195312 37.003906 49.082031 C 38.695312 47.988281 40.8125 47.324219 43.480469 47.058594 C 44.515625 46.957031 45.628906 46.90625 47.089844 46.894531 L 47.304688 46.894531 C 48.4375 46.886719 49.605469 46.875 50.75 46.957031 C 52.292969 47.070312 53.480469 47.371094 54.476562 47.90625 C 54.523438 48.121094 54.703125 48.246094 54.871094 48.246094 C 54.871094 48.246094 54.871094 48.246094 54.875 48.246094 C 55.019531 48.246094 55.195312 48.144531 55.207031 47.863281 C 55.265625 46.621094 55.191406 45.09375 54.097656 44.328125 C 53.542969 43.941406 52.875 43.898438 52.285156 43.863281 C 52.242188 43.859375 52.203125 43.859375 52.160156 43.855469 C 51.664062 43.828125 51.101562 43.796875 50.816406 43.402344 C 50.722656 43.277344 50.59375 43.21875 50.457031 43.238281 C 48.132812 43.601562 45.773438 43.265625 43.636719 42.269531 C 43.546875 42.226562 43.449219 42.230469 43.363281 42.273438 C 43.265625 42.320312 43.191406 42.421875 43.167969 42.539062 L 43.097656 42.878906 C 41.8125 42.4375 40.570312 43.019531 39.933594 43.417969 C 38.910156 44.054688 38.007812 45.066406 37.253906 46.421875 C 36.910156 47.039062 36.625 47.71875 36.402344 48.4375 C 36.265625 48.566406 36.257812 48.785156 36.3125 48.949219 C 36.375 49.128906 36.503906 49.246094 36.648438 49.25 " fill-opacity="1" fill-rule="nonzero"/><path fill="#040606" d="M 81.46875 35.941406 C 81.539062 35.941406 81.601562 35.917969 81.65625 35.875 C 81.769531 35.785156 81.820312 35.613281 81.792969 35.4375 C 81.769531 35.269531 81.675781 35.136719 81.542969 35.085938 C 79.8125 34.414062 78.273438 33.414062 76.960938 32.113281 C 76.886719 32.042969 76.785156 32.007812 76.6875 32.023438 C 76.578125 32.042969 76.480469 32.113281 76.429688 32.21875 C 76.324219 32.421875 76.410156 32.671875 76.546875 32.808594 C 77.902344 34.148438 79.554688 35.222656 81.332031 35.910156 C 81.378906 35.929688 81.425781 35.941406 81.46875 35.941406 " fill-opacity="1" fill-rule="nonzero"/><path fill="#040606" d="M 32.679688 46.0625 C 33.207031 44.726562 33.734375 43.714844 34.335938 42.871094 C 34.707031 42.351562 35.117188 41.882812 35.550781 41.480469 C 35.632812 41.40625 35.722656 41.328125 35.808594 41.253906 C 36.191406 40.917969 36.589844 40.570312 36.769531 40.058594 C 36.984375 39.449219 36.859375 38.660156 36.296875 38.34375 L 38.074219 35.9375 C 38.199219 35.765625 38.195312 35.515625 38.066406 35.339844 C 38.003906 35.257812 37.910156 35.199219 37.816406 35.179688 C 39.101562 34.109375 40.199219 32.816406 41.066406 31.355469 C 41.144531 31.21875 41.136719 31.050781 41.050781 30.894531 C 40.96875 30.753906 40.839844 30.667969 40.710938 30.667969 C 40.648438 30.667969 40.519531 30.6875 40.421875 30.851562 C 39.128906 33.039062 37.238281 34.839844 34.960938 36.054688 C 34.742188 36.171875 34.730469 36.46875 34.84375 36.675781 C 34.921875 36.820312 35.039062 36.898438 35.167969 36.898438 C 35.222656 36.898438 35.277344 36.882812 35.332031 36.855469 C 36.023438 36.484375 36.679688 36.0625 37.300781 35.589844 L 35.25 38.371094 C 35.039062 38.507812 34.90625 38.714844 34.871094 38.957031 C 34.847656 39.109375 34.878906 39.320312 35.03125 39.449219 C 35.109375 39.511719 35.210938 39.542969 35.304688 39.53125 C 35.386719 39.523438 35.457031 39.480469 35.503906 39.414062 L 35.730469 39.109375 C 35.761719 39.101562 35.792969 39.097656 35.828125 39.09375 C 35.921875 39.089844 36.082031 39.109375 36.125 39.304688 C 36.222656 39.757812 35.753906 40.167969 35.410156 40.46875 L 35.371094 40.5 C 34.515625 41.25 33.804688 42.105469 33.207031 43.113281 C 32.699219 43.96875 32.246094 44.957031 31.773438 46.238281 C 31.285156 47.5625 30.925781 48.636719 30.648438 49.621094 C 30.328125 50.742188 29.960938 52.425781 30.4375 54.046875 C 30.503906 54.269531 30.648438 54.402344 30.820312 54.402344 C 30.839844 54.402344 30.863281 54.402344 30.882812 54.398438 C 30.96875 54.378906 31.046875 54.328125 31.097656 54.242188 C 31.160156 54.136719 31.179688 53.992188 31.148438 53.878906 C 30.730469 52.457031 31.046875 50.996094 31.410156 49.753906 C 31.777344 48.503906 32.203125 47.261719 32.679688 46.0625 " fill-opacity="1" fill-rule="nonzero"/><g clip-path="url(#92b52cca6c)"><path fill="#040606" d="M 32.574219 69.3125 C 32.03125 69.601562 31.316406 69.539062 30.667969 69.140625 C 29.964844 68.71875 29.558594 67.9375 29.316406 67.386719 C 29.046875 66.777344 28.816406 66.136719 28.597656 65.519531 C 28.519531 65.296875 28.4375 65.070312 28.355469 64.847656 L 26.695312 60.316406 C 26.246094 59.097656 25.800781 57.875 25.351562 56.65625 L 25.320312 56.5625 C 25.027344 55.765625 24.722656 54.941406 24.792969 54.105469 C 24.851562 53.367188 25.214844 52.753906 25.757812 52.460938 C 26.53125 52.046875 27.472656 52.347656 28.046875 52.730469 C 28.789062 53.226562 29.308594 53.996094 29.808594 54.738281 L 29.847656 54.796875 C 29.910156 54.890625 30.015625 54.953125 30.121094 54.960938 C 30.222656 54.96875 30.316406 54.929688 30.386719 54.855469 C 30.542969 54.6875 30.503906 54.417969 30.390625 54.25 C 30.054688 53.753906 29.652344 53.183594 29.183594 52.6875 C 29.246094 52.578125 29.261719 52.425781 29.1875 52.269531 C 28.925781 51.734375 28.746094 51.1875 28.648438 50.632812 C 28.566406 50.160156 28.539062 49.667969 28.511719 49.191406 C 28.503906 49.058594 28.496094 48.921875 28.484375 48.789062 L 28.480469 48.722656 C 28.4375 48.070312 28.378906 47.183594 27.882812 46.667969 L 28.226562 46.253906 C 28.332031 46.125 28.347656 45.894531 28.265625 45.710938 C 28.203125 45.570312 28.089844 45.488281 27.953125 45.484375 C 27.742188 45.480469 27.539062 45.4375 27.355469 45.359375 C 27.398438 45.148438 27.304688 44.929688 27.121094 44.816406 L 26.445312 44.394531 L 27.484375 42.265625 C 27.550781 42.128906 27.535156 41.910156 27.449219 41.765625 C 27.378906 41.652344 27.28125 41.585938 27.164062 41.582031 L 26.496094 41.550781 C 26.832031 41.074219 27.015625 40.496094 27.019531 39.914062 C 27.054688 39.929688 27.09375 39.941406 27.128906 39.941406 C 27.214844 39.941406 27.300781 39.894531 27.367188 39.804688 C 27.585938 39.515625 27.667969 39.171875 27.609375 38.816406 C 27.523438 38.320312 27.15625 37.800781 26.648438 37.460938 C 26.3125 37.234375 25.917969 37.128906 25.539062 37.019531 C 25.097656 36.898438 24.675781 36.78125 24.347656 36.496094 C 24.050781 36.238281 24.003906 35.875 24.03125 35.40625 C 24.035156 35.300781 24.042969 35.195312 24.054688 35.089844 C 24.082031 34.714844 24.109375 34.328125 24.039062 33.941406 C 23.859375 33 23.09375 32.421875 22.535156 32.070312 C 22.375 31.96875 22.203125 31.871094 22.039062 31.773438 C 21.539062 31.488281 21.019531 31.191406 20.671875 30.742188 C 20.226562 30.175781 20.042969 29.367188 20.167969 28.53125 C 20.234375 28.070312 20.382812 27.625 20.609375 27.203125 C 20.699219 27.207031 20.792969 27.179688 20.859375 27.121094 C 20.972656 27.027344 21.011719 26.875 20.972656 26.703125 C 20.96875 26.6875 20.964844 26.667969 20.960938 26.652344 C 21.53125 25.878906 22.382812 25.1875 23.5625 24.535156 C 24.171875 24.199219 24.816406 23.898438 25.441406 23.609375 C 26.863281 22.941406 28.332031 22.253906 29.5 21.113281 C 29.675781 20.9375 29.621094 20.617188 29.453125 20.449219 C 29.308594 20.300781 29.113281 20.300781 28.96875 20.441406 C 27.878906 21.511719 26.460938 22.167969 25.089844 22.800781 C 24.628906 23.015625 24.15625 23.234375 23.699219 23.464844 C 22.480469 24.085938 21.582031 24.710938 20.90625 25.410156 C 20.996094 24.683594 21.28125 23.945312 21.746094 23.261719 C 22.394531 22.300781 23.367188 21.476562 24.722656 20.738281 C 25.746094 20.179688 26.847656 19.722656 27.914062 19.28125 C 28.160156 19.179688 28.40625 19.078125 28.648438 18.976562 L 38.109375 14.996094 C 38.328125 14.90625 38.351562 14.644531 38.265625 14.441406 C 38.167969 14.207031 37.957031 14.105469 37.757812 14.1875 L 37.070312 14.476562 C 37.046875 14.332031 36.960938 14.199219 36.828125 14.113281 C 36.699219 14.027344 36.617188 13.898438 36.585938 13.730469 C 36.539062 13.46875 36.628906 13.113281 36.808594 12.871094 C 37.25 12.273438 38.109375 12.078125 38.738281 11.9375 C 40.011719 11.652344 41.308594 11.371094 42.5625 11.101562 C 43.1875 10.964844 43.8125 10.832031 44.4375 10.691406 C 44.558594 10.667969 44.644531 10.585938 44.6875 10.464844 C 44.726562 10.355469 44.71875 10.21875 44.671875 10.101562 L 51.320312 8.441406 C 51.695312 8.347656 52.066406 8.253906 52.441406 8.160156 C 53.246094 7.957031 54.078125 7.75 54.898438 7.550781 C 55.894531 7.308594 56.96875 7.082031 58.050781 7.03125 C 59.324219 6.976562 60.417969 7.21875 61.3125 7.757812 C 61.390625 7.804688 61.484375 7.8125 61.566406 7.777344 C 61.691406 7.726562 61.769531 7.601562 61.792969 7.496094 C 61.84375 7.285156 61.746094 7.0625 61.558594 6.949219 C 59.632812 5.789062 57.308594 6.09375 55.289062 6.542969 C 53.597656 6.921875 51.890625 7.359375 50.242188 7.78125 C 49.496094 7.972656 48.726562 8.171875 47.964844 8.359375 L 43.753906 9.410156 C 43.636719 9.4375 43.550781 9.519531 43.507812 9.636719 C 43.472656 9.742188 43.472656 9.867188 43.511719 9.980469 L 39.007812 10.964844 C 37.804688 11.230469 36.152344 11.589844 35.875 13.101562 C 35.753906 13.757812 35.949219 14.375 36.382812 14.765625 L 28.558594 18.058594 C 28.230469 18.195312 27.890625 18.332031 27.5625 18.464844 C 25.175781 19.4375 22.703125 20.441406 21.230469 22.5625 C 20.402344 23.753906 20.027344 25.09375 20.167969 26.339844 C 19.953125 26.675781 19.78125 27.03125 19.660156 27.394531 C 19.375 28.238281 19.324219 29.148438 19.519531 29.945312 C 19.734375 30.820312 20.226562 31.550781 20.945312 32.050781 C 21.191406 32.222656 21.453125 32.375 21.707031 32.523438 C 22.121094 32.761719 22.546875 33.007812 22.890625 33.335938 C 23.15625 33.589844 23.308594 33.882812 23.339844 34.207031 C 23.367188 34.46875 23.34375 34.730469 23.316406 35.003906 C 23.300781 35.207031 23.28125 35.417969 23.285156 35.625 C 23.292969 36.246094 23.5 36.769531 23.875 37.136719 C 24.214844 37.464844 24.671875 37.640625 25.117188 37.777344 C 25.214844 37.808594 25.3125 37.835938 25.410156 37.863281 C 25.769531 37.964844 26.144531 38.070312 26.433594 38.296875 C 26.628906 38.453125 27.054688 38.84375 26.816406 39.160156 C 26.789062 39.195312 26.769531 39.238281 26.757812 39.277344 C 26.726562 39.265625 26.695312 39.253906 26.660156 39.25 C 26.566406 39.238281 26.476562 39.265625 26.40625 39.332031 C 26.320312 39.414062 26.269531 39.542969 26.277344 39.660156 C 26.328125 40.425781 25.9375 41.148438 25.265625 41.550781 C 25.09375 41.65625 25.0625 41.890625 25.109375 42.0625 C 25.15625 42.257812 25.289062 42.382812 25.453125 42.390625 L 26.515625 42.4375 L 25.757812 43.980469 C 25.707031 44.082031 25.703125 44.203125 25.742188 44.320312 C 25.707031 44.367188 25.683594 44.421875 25.671875 44.472656 C 25.628906 44.6875 25.722656 44.90625 25.90625 45.019531 L 26.257812 45.238281 C 26.242188 45.40625 26.324219 45.566406 26.417969 45.667969 C 26.628906 45.898438 26.890625 46.082031 27.179688 46.203125 L 26.992188 46.429688 C 26.898438 46.539062 26.871094 46.722656 26.917969 46.886719 C 26.957031 47.027344 27.046875 47.132812 27.160156 47.171875 C 27.425781 47.261719 27.574219 47.476562 27.660156 47.898438 C 27.734375 48.246094 27.75 48.613281 27.769531 48.96875 C 27.773438 49.09375 27.78125 49.222656 27.789062 49.347656 C 27.839844 50.117188 27.9375 51.007812 28.234375 51.890625 C 27.574219 51.46875 26.894531 51.3125 26.164062 51.410156 C 25.339844 51.519531 24.644531 52.082031 24.304688 52.917969 C 23.988281 53.6875 23.96875 54.59375 24.242188 55.617188 C 24.4375 56.363281 24.714844 57.097656 24.988281 57.804688 C 25.082031 58.046875 25.175781 58.300781 25.265625 58.546875 L 27.496094 64.625 C 27.597656 64.902344 27.699219 65.183594 27.796875 65.457031 C 28.035156 66.128906 28.285156 66.824219 28.558594 67.496094 C 28.859375 68.222656 29.367188 69.261719 30.296875 69.871094 C 30.804688 70.207031 31.347656 70.375 31.875 70.375 C 32.25 70.375 32.617188 70.289062 32.945312 70.109375 C 33.164062 69.996094 33.175781 69.699219 33.0625 69.492188 C 32.953125 69.289062 32.757812 69.214844 32.574219 69.3125 " fill-opacity="1" fill-rule="nonzero"/></g><path fill="#040606" d="M 43.707031 14.96875 C 43.5 15.007812 43.390625 15.207031 43.433594 15.453125 C 43.472656 15.679688 43.640625 15.886719 43.882812 15.84375 C 48.300781 15.078125 52.972656 16.128906 56.710938 18.722656 C 57.78125 19.464844 58.746094 20.3125 59.578125 21.238281 C 59.671875 21.339844 59.773438 21.382812 59.863281 21.382812 C 59.945312 21.382812 60.019531 21.351562 60.074219 21.300781 C 60.230469 21.160156 60.28125 20.867188 60.101562 20.667969 C 56.957031 17.164062 52.414062 15.003906 47.648438 14.742188 C 46.324219 14.671875 44.996094 14.746094 43.707031 14.96875 " fill-opacity="1" fill-rule="nonzero"/><path fill="#040606" d="M 36.089844 19.753906 C 37.742188 19.097656 39.507812 18.878906 41.1875 19.121094 C 41.308594 19.140625 41.414062 19.101562 41.484375 19.011719 C 41.578125 18.890625 41.597656 18.683594 41.527344 18.507812 C 41.464844 18.359375 41.355469 18.261719 41.21875 18.242188 C 39.613281 18.011719 37.921875 18.179688 36.324219 18.726562 C 34.753906 19.261719 33.304688 20.152344 32.132812 21.300781 C 29.753906 23.632812 28.679688 27.097656 29.257812 30.574219 C 29.582031 32.519531 30.402344 34.308594 31.632812 35.746094 C 31.722656 35.847656 31.828125 35.902344 31.929688 35.902344 C 31.996094 35.902344 32.066406 35.878906 32.128906 35.824219 C 32.265625 35.710938 32.296875 35.519531 32.222656 35.289062 C 31.566406 33.3125 31.808594 30.996094 32.867188 29.09375 C 33.875 27.28125 35.667969 25.929688 37.785156 25.394531 C 38.980469 25.089844 40.1875 25.058594 41.371094 25.304688 C 41.484375 25.328125 41.585938 25.296875 41.65625 25.214844 C 41.769531 25.089844 41.769531 24.882812 41.722656 24.730469 C 41.667969 24.566406 41.554688 24.453125 41.414062 24.425781 C 40.296875 24.195312 39.097656 24.203125 37.945312 24.441406 C 36.800781 24.679688 35.699219 25.152344 34.753906 25.800781 C 32.824219 27.132812 31.53125 29.269531 31.203125 31.664062 C 31.109375 32.371094 31.097656 33.082031 31.171875 33.78125 C 29.902344 31.582031 29.515625 28.847656 30.132812 26.355469 C 30.867188 23.40625 33.09375 20.9375 36.089844 19.753906 " fill-opacity="1" fill-rule="nonzero"/><path fill="#040606" d="M 62.449219 13.210938 C 61.40625 12.75 60.246094 12.445312 59.007812 12.308594 C 57.710938 12.167969 56.289062 12.203125 54.789062 12.414062 C 54.671875 12.429688 54.582031 12.5 54.535156 12.613281 C 54.46875 12.773438 54.507812 12.996094 54.621094 13.140625 C 54.707031 13.253906 54.832031 13.304688 54.960938 13.289062 C 57.5625 12.921875 59.855469 13.109375 61.773438 13.839844 C 63.824219 14.621094 65.40625 16.050781 66.226562 17.867188 C 66.703125 18.914062 66.867188 20.019531 66.707031 21.0625 C 66.675781 21.257812 66.738281 21.511719 66.953125 21.609375 C 66.996094 21.628906 67.042969 21.640625 67.089844 21.640625 C 67.140625 21.640625 67.195312 21.625 67.242188 21.601562 C 67.339844 21.550781 67.410156 21.449219 67.425781 21.335938 C 67.753906 19.230469 66.996094 17.011719 65.355469 15.246094 C 64.570312 14.402344 63.59375 13.714844 62.449219 13.210938 " fill-opacity="1" fill-rule="nonzero"/><path fill="#040606" d="M 63.71875 19.621094 C 63.777344 19.714844 63.878906 19.777344 63.988281 19.789062 C 63.996094 19.789062 64.007812 19.789062 64.019531 19.789062 C 64.113281 19.789062 64.199219 19.753906 64.261719 19.683594 C 64.417969 19.515625 64.378906 19.261719 64.269531 19.082031 C 62.757812 16.613281 60.238281 14.769531 57.351562 14.03125 C 56.546875 13.824219 55.714844 13.710938 54.882812 13.695312 C 54.671875 13.691406 54.519531 13.859375 54.515625 14.101562 C 54.507812 14.328125 54.636719 14.574219 54.882812 14.578125 C 57.636719 14.632812 60.339844 15.800781 62.296875 17.789062 C 62.828125 18.328125 63.308594 18.941406 63.71875 19.621094 " fill-opacity="1" fill-rule="nonzero"/><path fill="#040606" d="M 56.871094 28.703125 C 56.816406 28.703125 56.761719 28.703125 56.703125 28.699219 C 56.496094 28.6875 56.347656 28.839844 56.332031 29.078125 C 56.320312 29.316406 56.453125 29.566406 56.695312 29.582031 C 56.765625 29.585938 56.832031 29.585938 56.902344 29.585938 C 57.738281 29.585938 58.570312 29.304688 59.265625 28.78125 C 60.011719 28.21875 60.539062 27.421875 60.75 26.542969 C 60.8125 26.28125 60.617188 26.023438 60.410156 25.972656 C 60.273438 25.941406 60.09375 25.996094 60.03125 26.253906 C 59.699219 27.65625 58.332031 28.703125 56.871094 28.703125 " fill-opacity="1" fill-rule="nonzero"/><path fill="#040606" d="M 59.070312 25.289062 C 58.984375 25.214844 58.875 25.195312 58.769531 25.238281 C 56.8125 25.957031 54.773438 26.265625 52.714844 26.144531 C 52.589844 26.136719 52.480469 26.191406 52.414062 26.292969 C 52.324219 26.429688 52.316406 26.644531 52.402344 26.8125 C 52.46875 26.941406 52.578125 27.019531 52.707031 27.027344 C 53.015625 27.042969 53.328125 27.054688 53.636719 27.054688 C 55.472656 27.054688 57.269531 26.734375 58.988281 26.101562 C 59.117188 26.054688 59.203125 25.9375 59.230469 25.789062 C 59.261719 25.601562 59.195312 25.390625 59.070312 25.289062 " fill-opacity="1" fill-rule="nonzero"/><path fill="#040606" d="M 70.121094 27.265625 C 70.195312 27.265625 70.265625 27.234375 70.316406 27.191406 C 70.480469 27.054688 70.535156 26.753906 70.367188 26.546875 C 69.351562 25.335938 67.589844 24.9375 66.179688 25.609375 C 65.964844 25.710938 65.941406 25.988281 66.039062 26.195312 C 66.144531 26.414062 66.351562 26.503906 66.539062 26.414062 C 67.628906 25.898438 69.078125 26.203125 69.835938 27.109375 C 69.929688 27.222656 70.03125 27.265625 70.121094 27.265625 " fill-opacity="1" fill-rule="nonzero"/><path fill="#040606" d="M 69.515625 27.851562 L 66.847656 26.925781 C 66.722656 26.882812 66.605469 26.902344 66.515625 26.980469 C 66.40625 27.074219 66.355469 27.253906 66.386719 27.429688 C 66.417969 27.589844 66.511719 27.710938 66.644531 27.757812 L 69.3125 28.679688 C 69.355469 28.695312 69.398438 28.703125 69.441406 28.703125 C 69.582031 28.703125 69.699219 28.617188 69.753906 28.464844 C 69.832031 28.242188 69.753906 27.933594 69.515625 27.851562 " fill-opacity="1" fill-rule="nonzero"/><g clip-path="url(#40bcec36d9)"><path fill="#040606" d="M 58.6875 5.40625 L 67.25 9.125 C 67.367188 9.175781 67.480469 9.167969 67.570312 9.101562 C 67.679688 9.023438 67.738281 8.855469 67.71875 8.679688 C 67.695312 8.503906 67.605469 8.363281 67.46875 8.304688 L 62.832031 6.289062 C 64.078125 6.492188 65.34375 6.640625 66.597656 6.734375 C 66.863281 6.753906 67.128906 6.769531 67.394531 6.789062 C 69.523438 6.933594 71.722656 7.085938 73.644531 8.070312 C 74.625 8.570312 75.394531 9.21875 75.941406 10.003906 C 75.335938 9.757812 74.722656 9.515625 74.054688 9.257812 C 73.867188 9.183594 73.691406 9.261719 73.617188 9.449219 C 73.53125 9.671875 73.605469 9.992188 73.84375 10.082031 C 75.867188 10.871094 77.960938 11.6875 79.851562 12.824219 C 80.878906 13.445312 81.691406 14.054688 82.335938 14.695312 C 83.121094 15.46875 83.59375 16.269531 83.738281 17.078125 C 83.917969 18.058594 83.609375 19.046875 82.953125 19.597656 C 82.835938 19.695312 82.789062 19.863281 82.820312 20.046875 C 82.855469 20.234375 82.957031 20.382812 83.085938 20.429688 C 83.117188 20.441406 83.144531 20.445312 83.175781 20.445312 C 83.242188 20.445312 83.304688 20.417969 83.363281 20.371094 C 84.101562 19.753906 84.515625 18.820312 84.527344 17.746094 C 84.535156 16.746094 84.167969 15.730469 83.460938 14.804688 C 82.871094 14.03125 82.070312 13.316406 80.9375 12.550781 C 80.023438 11.9375 79.007812 11.371094 77.828125 10.824219 C 77.492188 10.664062 77.128906 10.503906 76.730469 10.332031 C 76.839844 10.160156 76.785156 9.9375 76.695312 9.789062 C 76.164062 8.886719 75.378906 8.125 74.367188 7.523438 C 73.488281 7.003906 72.460938 6.613281 71.316406 6.367188 C 70.035156 6.089844 68.707031 5.996094 67.425781 5.910156 L 67.335938 5.902344 C 65.785156 5.796875 64.511719 5.664062 63.328125 5.484375 C 61.835938 5.261719 60.320312 4.949219 58.824219 4.558594 C 58.660156 4.515625 58.523438 4.589844 58.46875 4.753906 C 58.390625 4.972656 58.472656 5.3125 58.6875 5.40625 " fill-opacity="1" fill-rule="nonzero"/></g><g clip-path="url(#e9d5d39915)"><path fill="#040606" d="M 79.492188 23.101562 C 79.25 23.191406 79.195312 23.496094 79.28125 23.726562 C 79.359375 23.933594 79.535156 24.03125 79.710938 23.960938 L 79.730469 23.953125 C 81.480469 23.292969 83.292969 22.605469 84.796875 21.441406 C 86.296875 20.28125 87.273438 18.746094 87.539062 17.117188 C 87.578125 16.886719 87.601562 16.652344 87.609375 16.421875 C 88.058594 17.847656 88.429688 19.566406 88.160156 21.285156 C 87.839844 23.332031 86.558594 25.023438 84.648438 25.933594 C 83.640625 26.410156 82.539062 26.609375 81.464844 26.507812 C 81.261719 26.488281 81.109375 26.628906 81.089844 26.855469 C 81.066406 27.09375 81.195312 27.367188 81.445312 27.390625 C 82.710938 27.507812 84.03125 27.242188 85.207031 26.636719 L 84.632812 27.882812 C 84.542969 28.074219 84.59375 28.316406 84.753906 28.46875 L 86.246094 29.90625 L 84.984375 30.371094 C 84.863281 30.414062 84.769531 30.519531 84.734375 30.65625 C 84.695312 30.808594 84.734375 30.972656 84.832031 31.085938 L 86.035156 32.460938 C 85.445312 32.96875 85.101562 33.742188 85.136719 34.507812 C 85.171875 35.320312 85.582031 36.078125 86.242188 36.550781 C 86.03125 37.222656 86.113281 37.996094 86.457031 38.628906 L 85.691406 38.679688 C 85.59375 38.6875 85.511719 38.738281 85.460938 38.828125 C 85.378906 38.964844 85.386719 39.1875 85.445312 39.304688 L 86.148438 40.726562 L 83.988281 51.421875 C 83.949219 51.621094 84.03125 51.878906 84.234375 51.972656 C 84.269531 51.988281 84.304688 52 84.335938 52.003906 C 84.378906 52.019531 84.417969 52.027344 84.460938 52.027344 C 84.59375 52.027344 84.699219 51.964844 84.765625 51.851562 C 84.84375 51.714844 84.847656 51.515625 84.777344 51.367188 L 86.875 40.972656 C 86.933594 40.675781 86.863281 40.503906 86.742188 40.257812 L 86.378906 39.523438 L 87.347656 39.457031 C 87.476562 39.449219 87.574219 39.371094 87.613281 39.242188 C 87.675781 39.058594 87.601562 38.777344 87.464844 38.664062 C 86.859375 38.171875 86.691406 37.3125 87.066406 36.621094 C 87.125 36.515625 87.132812 36.382812 87.089844 36.25 C 87.046875 36.117188 86.964844 36.015625 86.859375 35.964844 C 86.265625 35.679688 85.878906 35.105469 85.875 34.503906 C 85.867188 33.890625 86.242188 33.289062 86.828125 32.96875 C 86.921875 32.917969 86.984375 32.824219 87.003906 32.703125 C 87.03125 32.550781 86.992188 32.382812 86.90625 32.285156 L 85.792969 31.015625 L 87.121094 30.527344 C 87.25 30.480469 87.339844 30.378906 87.367188 30.238281 C 87.402344 30.070312 87.34375 29.871094 87.214844 29.75 L 85.4375 28.035156 L 86.015625 26.78125 C 86.070312 26.667969 86.066406 26.535156 86.011719 26.398438 C 85.984375 26.332031 85.945312 26.277344 85.902344 26.226562 C 86.390625 25.902344 86.832031 25.523438 87.21875 25.097656 C 88.023438 24.210938 88.558594 23.121094 88.808594 21.855469 C 89.027344 20.742188 89.023438 19.523438 88.796875 18.230469 C 88.519531 16.667969 87.976562 15.167969 87.476562 13.90625 C 87.433594 13.792969 87.335938 13.699219 87.226562 13.664062 C 87.136719 13.632812 87.042969 13.640625 86.960938 13.6875 C 86.851562 13.75 86.789062 13.875 86.785156 14.023438 C 86.71875 14.042969 86.652344 14.082031 86.605469 14.140625 C 86.488281 14.273438 86.46875 14.460938 86.546875 14.632812 C 87.117188 15.878906 86.933594 17.421875 86.042969 18.871094 C 85.289062 20.09375 84.078125 21.078125 82.21875 21.972656 C 81.304688 22.414062 80.339844 22.777344 79.492188 23.101562 " fill-opacity="1" fill-rule="nonzero"/></g><path fill="#040606" d="M 58.925781 71.113281 L 58.824219 72.785156 C 58.816406 72.953125 58.886719 73.101562 59.019531 73.1875 C 59.082031 73.230469 59.152344 73.25 59.222656 73.25 C 59.273438 73.25 59.324219 73.238281 59.367188 73.21875 C 59.4375 73.183594 59.550781 73.09375 59.566406 72.871094 L 59.664062 71.199219 C 59.679688 70.925781 59.480469 70.746094 59.289062 70.734375 C 59.121094 70.722656 58.941406 70.835938 58.925781 71.113281 " fill-opacity="1" fill-rule="nonzero"/><path fill="#040606" d="M 68.390625 51.644531 C 68.253906 51.808594 67.796875 52.15625 67.324219 51.792969 C 67.261719 51.742188 67.214844 51.644531 67.175781 51.566406 C 67.164062 51.546875 67.152344 51.523438 67.144531 51.503906 C 67.25 51.460938 67.363281 51.421875 67.480469 51.378906 L 67.484375 51.378906 C 67.871094 51.226562 68.335938 51.203125 68.460938 51.445312 C 68.457031 51.488281 68.421875 51.609375 68.390625 51.644531 Z M 67.195312 52.558594 C 67.460938 52.738281 67.785156 52.773438 68.113281 52.65625 C 68.355469 52.566406 68.945312 52.308594 69.140625 51.820312 C 69.234375 51.582031 69.222656 51.3125 69.117188 51.085938 C 69.554688 51.0625 70.003906 51.070312 70.460938 51.105469 C 70.460938 51.113281 70.460938 51.117188 70.464844 51.121094 C 70.589844 51.585938 70.527344 52.074219 70.28125 52.496094 C 70.03125 52.921875 69.628906 53.226562 69.144531 53.355469 C 68.640625 53.484375 68.132812 53.417969 67.71875 53.171875 C 67.46875 53.023438 67.28125 52.800781 67.195312 52.558594 Z M 76.195312 53.199219 C 76.351562 53.308594 76.476562 53.277344 76.535156 53.25 C 76.65625 53.195312 76.738281 53.0625 76.75 52.898438 C 76.769531 52.722656 76.703125 52.566406 76.574219 52.480469 C 75.074219 51.429688 73.410156 50.726562 71.636719 50.398438 C 69.40625 49.984375 67.601562 50.164062 66.265625 50.941406 C 65.4375 51.421875 64.8125 52.136719 64.503906 52.945312 C 64.5 52.957031 64.496094 52.96875 64.492188 52.980469 C 64.417969 52.992188 64.347656 53.015625 64.289062 53.0625 C 64.132812 53.171875 64.046875 53.355469 64.050781 53.550781 C 64.054688 53.664062 64.089844 53.773438 64.148438 53.859375 C 64.203125 53.933594 64.300781 54.015625 64.414062 54.023438 C 64.449219 54.027344 64.484375 54.023438 64.519531 54.015625 C 64.558594 54.136719 64.636719 54.230469 64.742188 54.277344 C 66.175781 54.890625 67.761719 55.214844 69.347656 55.214844 C 69.429688 55.214844 69.511719 55.214844 69.59375 55.210938 C 71.261719 55.175781 72.921875 54.785156 74.402344 54.078125 C 74.515625 54.023438 74.585938 53.910156 74.597656 53.773438 C 74.609375 53.589844 74.519531 53.390625 74.382812 53.296875 C 74.277344 53.226562 74.15625 53.214844 74.039062 53.273438 C 71.273438 54.597656 67.941406 54.683594 65.101562 53.515625 C 65.128906 53.484375 65.148438 53.449219 65.164062 53.414062 C 65.402344 52.785156 65.832031 52.265625 66.441406 51.871094 C 66.328125 52.511719 66.546875 53.175781 67.039062 53.65625 C 67.566406 54.167969 68.34375 54.394531 69.121094 54.269531 C 69.8125 54.15625 70.414062 53.769531 70.8125 53.171875 C 71.199219 52.59375 71.347656 51.882812 71.226562 51.199219 C 72.058594 51.332031 72.890625 51.554688 73.703125 51.871094 C 74.59375 52.21875 75.433594 52.664062 76.195312 53.199219 " fill-opacity="1" fill-rule="nonzero"/><path fill="#040606" d="M 45.644531 52.203125 C 46.101562 52.328125 46.761719 52.246094 47.136719 51.847656 C 47.488281 51.472656 47.457031 50.949219 47.226562 50.558594 C 47.769531 50.597656 48.300781 50.691406 48.808594 50.835938 C 48.808594 50.839844 48.808594 50.84375 48.808594 50.847656 C 48.898438 51.382812 48.738281 51.9375 48.363281 52.363281 C 47.96875 52.816406 47.410156 53.066406 46.828125 53.054688 C 46.230469 53.039062 45.6875 52.769531 45.328125 52.316406 C 45.171875 52.117188 45.0625 51.902344 45 51.671875 C 45.125 51.929688 45.363281 52.125 45.644531 52.203125 Z M 45.621094 51.40625 C 45.621094 51.410156 45.617188 51.410156 45.617188 51.414062 C 45.605469 51.40625 45.59375 51.402344 45.582031 51.390625 C 45.5625 51.378906 45.554688 51.363281 45.546875 51.355469 Z M 46.648438 51.128906 C 46.550781 51.300781 46.246094 51.351562 46.121094 51.363281 C 46.011719 51.375 45.898438 51.371094 45.792969 51.347656 C 45.75 51.339844 45.703125 51.332031 45.671875 51.3125 C 45.722656 51.191406 45.726562 51.054688 45.679688 50.933594 C 45.90625 50.859375 46.140625 50.808594 46.359375 50.859375 C 46.472656 50.886719 46.617188 50.972656 46.652344 51.050781 C 46.664062 51.078125 46.664062 51.101562 46.648438 51.128906 Z M 45 50.878906 C 44.980469 50.917969 44.964844 50.957031 44.953125 50.996094 C 44.957031 50.941406 44.96875 50.890625 44.976562 50.835938 C 44.984375 50.851562 44.992188 50.867188 45 50.878906 Z M 51.628906 52.832031 C 51.648438 52.863281 51.667969 52.890625 51.695312 52.910156 L 51.605469 52.851562 C 51.613281 52.84375 51.621094 52.839844 51.628906 52.832031 Z M 51.6875 52.925781 L 51.683594 52.921875 L 51.695312 52.910156 C 51.691406 52.914062 51.691406 52.921875 51.6875 52.925781 Z M 51.390625 53.195312 C 48.835938 54.148438 45.964844 54.277344 43.308594 53.558594 C 42.574219 53.359375 41.839844 53.082031 41.117188 52.730469 C 40.941406 52.648438 40.777344 52.703125 40.695312 52.871094 C 40.589844 53.085938 40.652344 53.4375 40.890625 53.550781 C 42.742188 54.445312 44.808594 54.90625 46.878906 54.90625 C 47.671875 54.90625 48.464844 54.839844 49.246094 54.703125 C 50.042969 54.5625 50.839844 54.347656 51.613281 54.058594 C 51.75 54.007812 51.839844 53.878906 51.855469 53.714844 C 51.894531 53.707031 51.929688 53.691406 51.964844 53.671875 C 51.996094 53.652344 52.027344 53.628906 52.054688 53.601562 L 52.074219 53.589844 C 52.121094 53.550781 52.164062 53.503906 52.191406 53.445312 C 52.316406 53.25 52.351562 52.988281 52.289062 52.746094 C 52.375 52.71875 52.453125 52.65625 52.496094 52.566406 C 52.605469 52.355469 52.515625 52.109375 52.378906 51.972656 C 51.15625 50.796875 49.558594 50.003906 47.882812 49.742188 C 46.269531 49.488281 44.507812 49.746094 42.503906 50.527344 C 41.511719 50.914062 40.558594 51.375 39.585938 51.851562 C 39.371094 51.957031 39.347656 52.238281 39.453125 52.445312 C 39.558594 52.660156 39.765625 52.746094 39.953125 52.65625 C 41.242188 52.019531 42.703125 51.308594 44.210938 50.894531 C 44.117188 52.058594 44.75 53.214844 45.769531 53.6875 C 46.96875 54.242188 48.402344 53.847656 49.105469 52.761719 C 49.429688 52.265625 49.585938 51.695312 49.566406 51.101562 C 49.632812 51.128906 49.695312 51.15625 49.761719 51.183594 C 50.410156 51.46875 51.015625 51.847656 51.5625 52.304688 C 51.535156 52.335938 51.511719 52.367188 51.492188 52.40625 C 51.417969 52.5625 51.441406 52.765625 51.542969 52.910156 C 51.464844 52.980469 51.417969 53.082031 51.40625 53.191406 C 51.402344 53.191406 51.398438 53.195312 51.390625 53.195312 " fill-opacity="1" fill-rule="nonzero"/><g clip-path="url(#a1cf2959c4)"><path fill="#040606" d="M 60.191406 100.542969 C 60.085938 100.480469 59.96875 100.476562 59.859375 100.535156 C 59.414062 100.773438 59.074219 101.144531 58.742188 101.5 C 58.375 101.902344 58.03125 102.277344 57.550781 102.480469 C 56.425781 102.960938 55.339844 102.128906 54.328125 101.234375 C 54.191406 101.113281 54.070312 101.128906 54.015625 101.148438 C 53.902344 101.183594 53.820312 101.296875 53.789062 101.445312 C 53.75 101.636719 53.804688 101.828125 53.925781 101.9375 C 54.800781 102.710938 55.808594 103.503906 56.925781 103.503906 C 57.15625 103.503906 57.390625 103.46875 57.628906 103.394531 C 58.28125 103.195312 58.722656 102.722656 59.152344 102.265625 C 59.476562 101.917969 59.8125 101.558594 60.230469 101.335938 C 60.34375 101.273438 60.414062 101.15625 60.417969 101.007812 C 60.425781 100.820312 60.332031 100.628906 60.191406 100.542969 " fill-opacity="1" fill-rule="nonzero"/></g><path fill="#040606" d="M 69.035156 44.265625 C 69.125 44.359375 69.242188 44.386719 69.359375 44.34375 C 72.285156 43.25 75.621094 44.046875 77.664062 46.324219 C 78.046875 46.75 78.378906 47.222656 78.652344 47.726562 C 76.828125 46.769531 74.75 46.160156 72.625 45.96875 C 70.390625 45.769531 68.101562 46.019531 66.007812 46.699219 C 64.875 47.066406 63.792969 47.554688 62.792969 48.15625 L 62.3125 46.378906 C 62.328125 46.382812 62.34375 46.386719 62.359375 46.394531 C 62.496094 46.445312 62.664062 46.507812 62.824219 46.433594 C 62.945312 46.378906 63.054688 46.285156 63.160156 46.191406 C 63.207031 46.152344 63.25 46.113281 63.292969 46.082031 L 65.433594 44.449219 C 65.457031 44.433594 65.476562 44.417969 65.5 44.402344 C 65.628906 44.300781 65.730469 44.21875 65.882812 44.183594 C 65.992188 44.160156 66.105469 44.144531 66.214844 44.128906 C 66.273438 44.121094 66.332031 44.113281 66.386719 44.105469 L 68.914062 43.703125 C 68.863281 43.855469 68.902344 44.125 69.035156 44.265625 Z M 79.261719 48.878906 C 79.367188 48.835938 79.453125 48.726562 79.484375 48.601562 C 79.492188 48.566406 79.496094 48.53125 79.496094 48.492188 C 79.648438 48.367188 79.664062 48.121094 79.585938 47.941406 C 78.945312 46.476562 77.890625 45.230469 76.542969 44.335938 C 75.1875 43.4375 73.632812 42.964844 72.046875 42.964844 C 72.039062 42.964844 72.03125 42.964844 72.023438 42.964844 C 71.320312 42.964844 70.632812 43.050781 69.96875 43.222656 C 69.976562 43.089844 69.941406 42.949219 69.859375 42.84375 C 69.773438 42.734375 69.648438 42.679688 69.515625 42.703125 L 65.746094 43.304688 C 65.507812 43.34375 65.402344 43.386719 65.214844 43.527344 L 62.667969 45.472656 C 62.652344 45.484375 62.636719 45.496094 62.625 45.507812 C 62.597656 45.527344 62.558594 45.5625 62.542969 45.566406 C 62.515625 45.566406 62.441406 45.535156 62.40625 45.519531 C 62.378906 45.507812 62.351562 45.496094 62.328125 45.488281 L 61.800781 45.328125 C 61.699219 45.300781 61.605469 45.320312 61.53125 45.394531 C 61.414062 45.503906 61.375 45.714844 61.410156 45.847656 L 62.152344 48.585938 C 62.191406 48.722656 62.285156 48.882812 62.4375 48.933594 C 62.492188 49.035156 62.570312 49.109375 62.660156 49.136719 C 62.6875 49.148438 62.71875 49.152344 62.753906 49.152344 C 62.804688 49.152344 62.863281 49.140625 62.925781 49.101562 C 66.585938 46.816406 71.320312 46.179688 75.597656 47.402344 C 76.777344 47.742188 77.921875 48.230469 79.003906 48.863281 C 79.085938 48.910156 79.175781 48.917969 79.261719 48.878906 " fill-opacity="1" fill-rule="nonzero"/></svg>