<svg xmlns="http://www.w3.org/2000/svg" xmlns:xlink="http://www.w3.org/1999/xlink" width="41" zoomAndPan="magnify" viewBox="0 0 30.75 30.000001" height="40" preserveAspectRatio="xMidYMid meet" version="1.0"><defs><clipPath id="ee8d3c02a7"><path d="M 0.738281 0 L 29.769531 0 L 29.769531 29.03125 L 0.738281 29.03125 Z M 0.738281 0 " clip-rule="nonzero"/></clipPath></defs><g clip-path="url(#ee8d3c02a7)"><path fill="#d76018" d="M 15.253906 29.03125 C 23.269531 29.03125 29.769531 22.53125 29.769531 14.515625 C 29.769531 6.5 23.269531 0 15.253906 0 C 7.238281 0 0.738281 6.5 0.738281 14.515625 C 0.738281 22.53125 7.238281 29.03125 15.253906 29.03125 Z M 12.941406 7.453125 L 17.566406 7.453125 L 22.875 21.578125 L 18.597656 21.578125 L 17.871094 19.183594 L 12.496094 19.183594 L 11.789062 21.578125 L 7.628906 21.578125 L 12.9375 7.453125 Z M 17.058594 16.429688 L 13.355469 16.429688 L 15.199219 10.371094 Z M 17.058594 16.429688 " fill-opacity="1" fill-rule="nonzero"/></g></svg>