<svg xmlns="http://www.w3.org/2000/svg" xmlns:xlink="http://www.w3.org/1999/xlink" width="194" zoomAndPan="magnify" viewBox="0 0 145.5 237" height="316" preserveAspectRatio="xMidYMid meet" version="1.0"><defs><clipPath id="a36f36e3a0"><path d="M 30 76 L 142.519531 76 L 142.519531 209 L 30 209 Z M 30 76 " clip-rule="nonzero"/></clipPath><clipPath id="4217b86b51"><path d="M 2.75 18 L 88 18 L 88 148 L 2.75 148 Z M 2.75 18 " clip-rule="nonzero"/></clipPath><clipPath id="f4d6d2cbbd"><path d="M 81 14.90625 L 134 14.90625 L 134 47 L 81 47 Z M 81 14.90625 " clip-rule="nonzero"/></clipPath><clipPath id="3c512f4807"><path d="M 122.761719 33 L 142.351562 33 L 142.351562 110.464844 L 122.761719 110.464844 Z M 122.761719 33 " clip-rule="nonzero"/></clipPath><clipPath id="084f2f95cc"><path d="M 71.632812 207.472656 L 85.167969 207.472656 L 85.167969 213.6875 L 71.632812 213.6875 Z M 71.632812 207.472656 " clip-rule="nonzero"/></clipPath></defs><path fill="#040606" d="M 20.96875 122.511719 C 21.140625 122.460938 21.296875 122.480469 21.453125 122.566406 C 21.707031 122.703125 21.933594 123.015625 22.03125 123.367188 C 22.152344 123.804688 22.179688 124.289062 22.207031 124.757812 C 22.21875 124.996094 22.234375 125.242188 22.261719 125.480469 C 22.59375 128.515625 23.664062 131.492188 25.363281 134.09375 C 25.488281 134.285156 25.691406 134.410156 25.910156 134.425781 C 25.925781 134.429688 25.945312 134.429688 25.964844 134.429688 C 26.144531 134.429688 26.316406 134.351562 26.445312 134.214844 C 26.753906 133.882812 26.683594 133.355469 26.457031 133.003906 C 24.886719 130.601562 23.929688 127.859375 23.6875 125.085938 C 23.679688 124.960938 23.667969 124.832031 23.65625 124.703125 C 23.5625 123.441406 23.453125 122.015625 22.285156 121.160156 C 21.765625 120.777344 21.160156 120.648438 20.578125 120.796875 C 19.964844 120.953125 19.445312 121.410156 19.152344 122.042969 C 18.441406 123.59375 19.265625 125.128906 20.167969 126.429688 C 20.304688 126.621094 20.511719 126.746094 20.726562 126.761719 C 20.925781 126.773438 21.113281 126.699219 21.25 126.546875 C 21.554688 126.21875 21.492188 125.667969 21.257812 125.332031 C 21.222656 125.28125 21.1875 125.230469 21.152344 125.179688 C 20.808594 124.691406 20.421875 124.140625 20.363281 123.570312 C 20.324219 123.160156 20.558594 122.640625 20.96875 122.511719 " fill-opacity="1" fill-rule="nonzero"/><g clip-path="url(#a36f36e3a0)"><path fill="#040606" d="M 138.285156 112.375 C 136.414062 112.316406 134.597656 113.300781 133.527344 114.945312 C 132.984375 115.78125 132.625 116.675781 132.375 117.628906 C 132.507812 108.492188 129.847656 99.507812 127.179688 91.839844 C 126.4375 89.707031 125.632812 87.539062 124.792969 85.386719 L 125.5 85.292969 C 125.734375 85.261719 125.921875 85.101562 126.011719 84.859375 C 126.132812 84.523438 126.066406 84.074219 125.855469 83.839844 L 122.988281 80.65625 L 123.023438 80.652344 C 123.289062 80.621094 123.484375 80.445312 123.5625 80.171875 C 123.667969 79.789062 123.523438 79.265625 123.25 79.054688 L 120.394531 76.859375 C 119.992188 76.550781 119.648438 76.707031 119.472656 76.933594 C 119.191406 77.296875 119.195312 77.96875 119.617188 78.292969 L 120.816406 79.21875 C 120.742188 79.285156 120.679688 79.378906 120.636719 79.488281 C 120.511719 79.824219 120.578125 80.285156 120.789062 80.519531 L 123.679688 83.730469 L 123.535156 83.75 C 123.34375 83.777344 123.191406 83.878906 123.089844 84.046875 C 122.910156 84.355469 122.96875 84.777344 123.054688 84.988281 C 124.929688 89.703125 126.453125 94.003906 127.707031 98.140625 C 129.25 103.238281 130.175781 107.507812 130.617188 111.574219 C 130.898438 114.167969 130.972656 116.75 130.835938 119.246094 C 130.804688 119.796875 131.203125 120.164062 131.59375 120.183594 C 131.605469 120.183594 131.621094 120.183594 131.632812 120.183594 C 131.734375 120.183594 131.835938 120.160156 131.929688 120.113281 C 131.882812 120.503906 131.839844 120.902344 131.800781 121.308594 C 131.761719 121.703125 131.871094 122.195312 132.300781 122.394531 C 132.492188 122.484375 132.710938 122.472656 132.902344 122.367188 C 133.09375 122.253906 133.226562 122.054688 133.246094 121.832031 C 133.578125 118.5 134.203125 114.890625 137.488281 114.222656 C 138.65625 113.984375 140.046875 114.34375 140.519531 115.683594 C 140.96875 116.964844 140.589844 118.488281 140.257812 119.832031 C 140.21875 119.992188 140.179688 120.148438 140.144531 120.304688 C 139.699219 122.15625 139.253906 124.039062 138.824219 125.863281 C 137.347656 132.117188 135.820312 138.585938 134.101562 144.890625 L 134.035156 145.136719 C 133.589844 146.78125 133.082031 148.644531 131.757812 149.765625 C 130.789062 150.582031 128.863281 151.046875 127.925781 149.949219 C 127.570312 149.53125 127.179688 149.605469 126.953125 149.796875 C 126.933594 149.8125 126.917969 149.832031 126.898438 149.847656 C 127.152344 148.851562 127.390625 147.84375 127.613281 146.828125 C 127.730469 146.292969 127.332031 145.773438 126.910156 145.679688 C 126.644531 145.621094 126.285156 145.738281 126.175781 146.253906 C 124.765625 152.726562 122.609375 159.03125 119.761719 164.984375 C 119.550781 165.429688 117.445312 169.738281 114.109375 172.804688 C 112.878906 173.9375 112 174.695312 111.902344 174.777344 C 108.238281 177.875 104.421875 180.886719 100.558594 183.722656 C 100.289062 183.917969 100.027344 184.113281 99.757812 184.308594 C 96.367188 186.808594 92.859375 189.390625 89.03125 191.1875 C 86.863281 192.203125 84.691406 192.824219 82.578125 193.039062 C 80.476562 193.25 78.152344 193.085938 75.679688 192.550781 C 71.238281 191.585938 67.023438 189.632812 62.949219 187.738281 L 62.320312 187.445312 C 58.289062 185.578125 54.367188 183.695312 50.734375 181.253906 C 47.132812 178.832031 44.121094 175.929688 41.78125 172.632812 C 36.992188 165.871094 34.664062 157.761719 32.695312 150.039062 C 32.429688 149.007812 32.171875 147.960938 31.953125 147.078125 C 31.847656 146.652344 31.503906 146.269531 31.054688 146.359375 C 30.882812 146.390625 30.738281 146.492188 30.636719 146.648438 C 30.507812 146.855469 30.460938 147.148438 30.523438 147.394531 C 32.175781 154.046875 34.042969 161.582031 37.480469 168.351562 C 37.238281 168.617188 37.257812 169.046875 37.371094 169.367188 C 40.105469 177.339844 41.191406 186.054688 40.511719 194.5625 C 40.320312 196.925781 39.976562 199.359375 39.484375 201.800781 C 39.402344 202.195312 39.570312 202.71875 39.976562 202.90625 C 40.164062 202.992188 40.359375 202.992188 40.535156 202.902344 C 40.730469 202.804688 40.875 202.605469 40.921875 202.367188 C 42.667969 193.710938 42.597656 184.566406 40.714844 175.925781 C 40.46875 174.800781 40.183594 173.652344 39.863281 172.5 C 42.019531 175.800781 44.625 178.652344 47.617188 180.992188 C 51.386719 183.9375 55.59375 186.109375 59.214844 187.84375 L 59.71875 188.085938 C 63.839844 190.066406 68.105469 192.109375 72.527344 193.492188 C 77.824219 195.144531 82.609375 195.3125 86.761719 193.988281 C 91.167969 192.585938 95 189.855469 98.707031 187.210938 L 98.898438 187.074219 C 102.90625 184.21875 106.867188 181.183594 110.671875 178.046875 C 111.125 177.675781 111.601562 177.277344 112.148438 176.820312 C 111.742188 184.84375 112.097656 192.964844 113.203125 200.960938 C 113.535156 203.363281 113.949219 205.820312 114.429688 208.265625 C 114.523438 208.742188 114.855469 208.964844 115.175781 208.964844 C 115.21875 208.964844 115.261719 208.960938 115.304688 208.953125 C 115.664062 208.882812 115.972656 208.523438 115.863281 207.96875 C 114.191406 199.511719 113.386719 190.871094 113.464844 182.28125 C 113.484375 180.058594 113.570312 177.777344 113.710938 175.492188 C 114.605469 174.730469 118.488281 171.261719 119.921875 168.324219 C 122.203125 163.632812 124.972656 156.707031 126.21875 152.375 C 126.375 151.824219 126.527344 151.265625 126.679688 150.703125 C 126.707031 150.835938 126.769531 150.96875 126.867188 151.082031 C 127.574219 151.910156 128.597656 152.347656 129.699219 152.347656 C 130.253906 152.347656 130.828125 152.234375 131.394531 152.007812 C 132.890625 151.402344 134.039062 150.015625 134.808594 147.878906 C 135.394531 146.257812 135.820312 144.550781 136.234375 142.898438 C 136.339844 142.46875 136.449219 142.042969 136.558594 141.617188 C 137.0625 139.644531 137.582031 137.554688 138.238281 134.839844 C 139.019531 131.617188 139.800781 128.335938 140.558594 125.160156 C 140.882812 123.796875 141.207031 122.433594 141.535156 121.074219 L 141.605469 120.769531 C 142.003906 119.113281 142.457031 117.238281 141.984375 115.484375 C 141.488281 113.648438 140.035156 112.429688 138.285156 112.375 " fill-opacity="1" fill-rule="nonzero"/></g><path fill="#040606" d="M 134.976562 129.035156 C 134.59375 129.921875 134.207031 130.828125 133.835938 131.707031 C 133.015625 133.644531 132.167969 135.648438 131.273438 137.585938 C 131.089844 137.972656 130.433594 139.265625 129.484375 139.5625 C 129.128906 139.675781 128.78125 139.628906 128.425781 139.417969 C 128.261719 139.324219 128.074219 139.3125 127.90625 139.386719 C 127.695312 139.476562 127.519531 139.695312 127.464844 139.941406 C 127.363281 140.363281 127.5625 140.828125 127.9375 141.046875 C 128.339844 141.28125 128.75 141.386719 129.160156 141.386719 C 130.355469 141.386719 131.503906 140.484375 132.179688 139.328125 C 132.554688 138.691406 132.84375 138 133.121094 137.328125 C 133.210938 137.117188 133.300781 136.902344 133.390625 136.691406 L 135.882812 130.933594 C 135.957031 130.761719 136.039062 130.582031 136.117188 130.410156 C 136.441406 129.6875 136.78125 128.9375 136.894531 128.144531 C 137.027344 127.210938 136.75 126.25 136.148438 125.578125 C 135.628906 124.992188 134.910156 124.679688 134.125 124.695312 C 133.328125 124.714844 132.640625 125.101562 132.191406 125.785156 C 131.65625 126.597656 131.550781 127.703125 131.914062 128.601562 C 132.011719 128.828125 132.203125 129.015625 132.417969 129.089844 C 132.597656 129.152344 132.785156 129.132812 132.945312 129.039062 C 133.335938 128.8125 133.375 128.273438 133.214844 127.878906 C 133.042969 127.457031 133.242188 127.117188 133.378906 126.949219 C 133.660156 126.601562 134.125 126.417969 134.527344 126.492188 C 134.867188 126.554688 135.292969 126.785156 135.421875 127.140625 C 135.597656 127.636719 135.304688 128.292969 135.066406 128.824219 C 135.035156 128.894531 135.003906 128.964844 134.976562 129.035156 " fill-opacity="1" fill-rule="nonzero"/><path fill="#040606" d="M 90.125 110.855469 C 89.949219 110.707031 89.71875 110.648438 89.507812 110.703125 C 89.308594 110.75 89.148438 110.894531 89.070312 111.089844 C 87.167969 115.796875 86.816406 121.128906 88.082031 126.109375 C 88.707031 128.566406 89.71875 130.910156 91.085938 133.070312 C 91.421875 133.601562 91.792969 134.140625 92.152344 134.660156 C 93.214844 136.207031 94.316406 137.804688 94.796875 139.597656 C 95.335938 141.621094 95.03125 144.203125 93.125 145.410156 C 92.894531 145.558594 92.769531 145.828125 92.78125 146.15625 C 92.796875 146.535156 93 146.898438 93.273438 147.039062 C 93.359375 147.085938 93.453125 147.109375 93.550781 147.109375 C 93.667969 147.109375 93.789062 147.074219 93.902344 147 C 95.605469 145.917969 96.585938 143.804688 96.515625 141.351562 C 96.445312 138.75 95.171875 136.484375 93.800781 134.417969 C 93.605469 134.125 93.402344 133.828125 93.207031 133.539062 C 92.691406 132.773438 92.15625 131.984375 91.6875 131.175781 C 91.070312 130.105469 90.53125 128.929688 90.085938 127.683594 C 89.25 125.351562 88.820312 122.871094 88.8125 120.308594 C 88.800781 117.433594 89.332031 114.648438 90.386719 112.035156 C 90.554688 111.621094 90.445312 111.121094 90.125 110.855469 " fill-opacity="1" fill-rule="nonzero"/><path fill="#040606" d="M 70.046875 135.53125 C 70.710938 134.109375 71.402344 132.640625 71.761719 131.070312 C 72.234375 129.023438 72.097656 127.109375 71.371094 125.53125 C 71.1875 125.132812 70.914062 125.046875 70.769531 125.035156 C 70.535156 125.015625 70.300781 125.128906 70.148438 125.34375 C 69.960938 125.609375 69.9375 125.953125 70.082031 126.269531 C 71.359375 129.046875 69.9375 132.074219 68.679688 134.746094 C 68.503906 135.121094 68.335938 135.476562 68.175781 135.832031 C 67.023438 138.386719 65.902344 141.722656 67.457031 144.882812 C 68.210938 146.414062 69.386719 147.4375 70.851562 147.839844 C 70.914062 147.859375 70.976562 147.867188 71.035156 147.867188 C 71.296875 147.867188 71.503906 147.699219 71.585938 147.402344 C 71.722656 146.910156 71.480469 146.226562 70.96875 146.085938 C 68.503906 145.410156 67.910156 142.316406 68.273438 140.335938 C 68.585938 138.648438 69.328125 137.0625 70.046875 135.53125 " fill-opacity="1" fill-rule="nonzero"/><path fill="#040606" d="M 85.597656 143.707031 C 84.660156 144.148438 83.6875 144.601562 82.695312 144.492188 C 81.859375 144.398438 81.269531 143.828125 80.644531 143.226562 C 80.355469 142.949219 80.058594 142.660156 79.738281 142.425781 C 78.742188 141.699219 77.523438 141.265625 76.296875 141.210938 C 74.855469 141.148438 73.453125 141.546875 72.335938 142.339844 C 72.105469 142.503906 71.988281 142.800781 72.023438 143.148438 C 72.054688 143.464844 72.222656 143.847656 72.53125 143.988281 C 72.730469 144.078125 72.941406 144.054688 73.132812 143.917969 C 74.269531 143.109375 75.671875 142.8125 77.085938 143.078125 C 77.808594 143.214844 78.480469 143.5 79.023438 143.90625 C 79.324219 144.132812 79.597656 144.390625 79.878906 144.664062 C 80.144531 144.917969 80.417969 145.183594 80.71875 145.414062 C 81.445312 145.976562 82.207031 146.265625 82.988281 146.28125 C 83.007812 146.28125 83.03125 146.28125 83.050781 146.28125 C 83.949219 146.28125 84.785156 145.984375 85.484375 145.691406 C 85.726562 145.589844 85.96875 145.480469 86.226562 145.359375 C 87.484375 144.78125 88.785156 144.183594 89.976562 144.820312 C 90.304688 144.996094 90.632812 144.90625 90.800781 144.589844 C 91.03125 144.164062 90.914062 143.429688 90.449219 143.183594 C 89.398438 142.621094 88.121094 142.652344 86.542969 143.285156 C 86.230469 143.410156 85.910156 143.5625 85.597656 143.707031 " fill-opacity="1" fill-rule="nonzero"/><path fill="#040606" d="M 84.003906 163.339844 C 84.75 163.3125 85.503906 163.265625 86.234375 163.214844 C 87.679688 163.121094 89.179688 163.023438 90.644531 163.105469 C 93.0625 163.242188 94.9375 163.816406 96.378906 164.855469 C 93.195312 167.660156 89.085938 169.519531 84.792969 170.09375 C 80.59375 170.65625 76.140625 169.894531 72.257812 167.945312 C 70.222656 166.925781 68.363281 165.589844 66.734375 163.976562 C 69.804688 162.183594 73.5 162.445312 77.332031 162.90625 C 79.679688 163.1875 81.800781 163.414062 84.003906 163.339844 Z M 85.210938 161.503906 C 83.023438 161.636719 80.773438 161.546875 78.121094 161.226562 L 77.941406 161.207031 C 75.863281 160.953125 73.714844 160.695312 71.574219 160.820312 C 70.738281 160.867188 69.941406 160.976562 69.1875 161.144531 C 72.097656 159.199219 75.46875 157.890625 79.015625 157.347656 C 83.796875 156.613281 88.425781 157.292969 92.042969 159.269531 C 93.699219 160.171875 95.050781 161.34375 96 162.695312 C 93.945312 161.601562 91.667969 161.324219 89.339844 161.324219 C 88.128906 161.324219 86.90625 161.398438 85.691406 161.472656 Z M 97.558594 166.097656 C 97.671875 165.996094 97.746094 165.863281 97.78125 165.710938 C 97.8125 165.726562 97.847656 165.738281 97.882812 165.746094 C 97.9375 165.789062 98 165.824219 98.0625 165.851562 C 98.261719 165.9375 98.480469 165.921875 98.664062 165.8125 C 98.851562 165.703125 98.976562 165.511719 99.003906 165.289062 L 99.058594 164.808594 C 99.105469 164.394531 98.984375 164.03125 98.726562 163.828125 C 98.566406 163.699219 98.386719 163.648438 98.210938 163.671875 C 98.199219 163.597656 98.175781 163.527344 98.144531 163.457031 C 96.414062 159.582031 92.394531 156.765625 87.117188 155.730469 C 82.4375 154.808594 77.316406 155.359375 72.691406 157.277344 C 70.125 158.339844 67.761719 159.832031 65.652344 161.707031 C 65.648438 161.710938 65.644531 161.714844 65.640625 161.722656 C 65.398438 161.683594 65.105469 161.578125 64.894531 161.3125 C 64.683594 161.042969 64.378906 160.941406 64.09375 161.042969 C 63.796875 161.148438 63.613281 161.449219 63.621094 161.804688 L 63.644531 162.675781 C 63.652344 163.09375 63.90625 163.566406 64.355469 163.628906 C 64.601562 163.660156 64.824219 163.550781 64.96875 163.339844 C 64.9375 163.523438 64.957031 163.730469 65.023438 163.929688 C 65.09375 164.125 65.203125 164.289062 65.335938 164.390625 C 65.351562 164.65625 65.46875 164.925781 65.664062 165.125 C 68.828125 168.34375 73.027344 170.636719 77.496094 171.578125 C 79.007812 171.894531 80.542969 172.054688 82.082031 172.054688 C 85.085938 172.054688 88.101562 171.453125 90.980469 170.257812 C 93.363281 169.273438 95.578125 167.871094 97.558594 166.097656 " fill-opacity="1" fill-rule="nonzero"/><path fill="#040606" d="M 89.59375 171.917969 C 84.683594 173.472656 79.328125 173.421875 74.523438 171.777344 C 74.273438 171.691406 74.035156 171.730469 73.855469 171.882812 C 73.636719 172.078125 73.53125 172.441406 73.601562 172.792969 C 73.664062 173.113281 73.851562 173.351562 74.117188 173.441406 C 76.800781 174.359375 79.621094 174.816406 82.429688 174.816406 C 85.003906 174.816406 87.566406 174.433594 90.011719 173.660156 C 90.261719 173.582031 90.445312 173.371094 90.507812 173.085938 C 90.585938 172.71875 90.464844 172.285156 90.214844 172.058594 C 90.039062 171.898438 89.816406 171.847656 89.59375 171.917969 " fill-opacity="1" fill-rule="nonzero"/><path fill="#040606" d="M 39.144531 101.8125 C 40.128906 99.488281 41.503906 97.464844 43.148438 95.925781 C 44.597656 94.566406 46.617188 93.398438 48.605469 93.398438 C 49.332031 93.398438 50.050781 93.550781 50.738281 93.90625 C 50.910156 93.996094 51.105469 94 51.277344 93.917969 C 51.480469 93.824219 51.640625 93.613281 51.691406 93.375 L 51.832031 92.703125 C 56.023438 94.5 60.617188 95.109375 65.140625 94.476562 C 66.136719 95.5 67.492188 95.582031 68.804688 95.660156 C 69.640625 95.707031 70.5 95.757812 71.242188 96.0625 C 72.535156 96.589844 73.175781 97.894531 73.246094 100.164062 C 69.234375 98.179688 64.625 98.203125 60.164062 98.226562 C 59.847656 98.226562 59.53125 98.230469 59.21875 98.230469 C 54.488281 98.246094 49.464844 98.367188 44.601562 99.683594 C 42.640625 100.214844 40.804688 100.929688 39.144531 101.8125 Z M 37.511719 104.734375 C 37.566406 104.75 37.621094 104.757812 37.671875 104.757812 C 37.898438 104.757812 38.101562 104.628906 38.226562 104.398438 C 41.609375 102.199219 45.855469 100.871094 51.203125 100.335938 C 53.277344 100.128906 55.507812 100.027344 58.4375 100.007812 L 58.867188 100.003906 C 61.136719 99.988281 63.476562 99.96875 65.765625 100.132812 C 68.859375 100.355469 71.238281 100.964844 73.238281 102.039062 C 73.328125 102.46875 73.6875 102.722656 74.019531 102.722656 C 74.023438 102.722656 74.027344 102.722656 74.027344 102.722656 C 74.320312 102.71875 74.671875 102.515625 74.699219 101.953125 C 74.816406 99.453125 74.667969 96.386719 72.476562 94.851562 C 71.363281 94.074219 70.023438 93.988281 68.84375 93.914062 C 68.757812 93.910156 68.675781 93.90625 68.589844 93.902344 C 67.597656 93.84375 66.472656 93.78125 65.898438 92.988281 C 65.714844 92.738281 65.453125 92.621094 65.183594 92.664062 C 60.519531 93.390625 55.796875 92.71875 51.519531 90.71875 C 51.339844 90.632812 51.140625 90.632812 50.96875 90.71875 C 50.769531 90.816406 50.625 91.019531 50.574219 91.253906 L 50.433594 91.9375 C 47.855469 91.054688 45.367188 92.222656 44.089844 93.019531 C 42.042969 94.296875 40.234375 96.328125 38.722656 99.058594 C 38.035156 100.296875 37.464844 101.660156 37.019531 103.105469 C 36.742188 103.363281 36.726562 103.796875 36.84375 104.132812 C 36.964844 104.492188 37.226562 104.722656 37.511719 104.734375 " fill-opacity="1" fill-rule="nonzero"/><path fill="#040606" d="M 127.320312 78.003906 C 127.457031 78.003906 127.585938 77.960938 127.695312 77.875 C 127.917969 77.695312 128.023438 77.351562 127.96875 76.992188 C 127.917969 76.65625 127.730469 76.394531 127.464844 76.289062 C 124 74.941406 120.910156 72.933594 118.28125 70.320312 C 118.136719 70.175781 117.933594 70.109375 117.738281 70.140625 C 117.519531 70.175781 117.324219 70.320312 117.21875 70.527344 C 117.007812 70.941406 117.179688 71.441406 117.460938 71.714844 C 120.167969 74.410156 123.480469 76.5625 127.039062 77.949219 C 127.136719 77.984375 127.230469 78.003906 127.320312 78.003906 " fill-opacity="1" fill-rule="nonzero"/><path fill="#040606" d="M 29.558594 98.332031 C 30.617188 95.652344 31.671875 93.613281 32.878906 91.921875 C 33.625 90.878906 34.441406 89.941406 35.3125 89.132812 C 35.480469 88.980469 35.65625 88.824219 35.828125 88.675781 C 36.601562 88 37.398438 87.304688 37.753906 86.273438 C 38.183594 85.050781 37.933594 83.472656 36.8125 82.828125 L 40.367188 78 C 40.617188 77.65625 40.613281 77.152344 40.355469 76.800781 C 40.230469 76.632812 40.042969 76.515625 39.855469 76.480469 C 42.425781 74.328125 44.628906 71.730469 46.363281 68.792969 C 46.519531 68.527344 46.511719 68.183594 46.332031 67.871094 C 46.171875 67.589844 45.914062 67.414062 45.65625 67.414062 C 45.523438 67.414062 45.269531 67.457031 45.078125 67.785156 C 42.480469 72.179688 38.695312 75.796875 34.128906 78.238281 C 33.695312 78.46875 33.671875 79.0625 33.894531 79.480469 C 34.050781 79.769531 34.292969 79.929688 34.546875 79.929688 C 34.65625 79.929688 34.765625 79.902344 34.875 79.84375 C 36.257812 79.101562 37.578125 78.253906 38.820312 77.304688 L 34.707031 82.890625 C 34.292969 83.164062 34.023438 83.578125 33.949219 84.066406 C 33.902344 84.371094 33.964844 84.789062 34.273438 85.050781 C 34.429688 85.175781 34.632812 85.242188 34.820312 85.21875 C 34.984375 85.199219 35.128906 85.113281 35.222656 84.984375 L 35.675781 84.371094 C 35.734375 84.355469 35.800781 84.34375 35.867188 84.339844 C 36.054688 84.328125 36.378906 84.367188 36.464844 84.757812 C 36.664062 85.675781 35.71875 86.5 35.03125 87.101562 L 34.957031 87.164062 C 33.234375 88.667969 31.816406 90.386719 30.617188 92.414062 C 29.605469 94.125 28.691406 96.117188 27.746094 98.683594 C 26.765625 101.347656 26.046875 103.507812 25.488281 105.480469 C 24.851562 107.734375 24.117188 111.109375 25.066406 114.363281 C 25.199219 114.816406 25.492188 115.085938 25.832031 115.085938 C 25.875 115.085938 25.917969 115.082031 25.964844 115.074219 C 26.136719 115.039062 26.289062 114.929688 26.390625 114.761719 C 26.519531 114.546875 26.558594 114.261719 26.492188 114.027344 C 25.65625 111.171875 26.289062 108.238281 27.015625 105.746094 C 27.75 103.238281 28.605469 100.746094 29.558594 98.332031 " fill-opacity="1" fill-rule="nonzero"/><g clip-path="url(#4217b86b51)"><path fill="#040606" d="M 29.347656 145.023438 C 28.261719 145.605469 26.832031 145.480469 25.527344 144.683594 C 24.125 143.832031 23.308594 142.261719 22.820312 141.152344 C 22.28125 139.933594 21.824219 138.648438 21.382812 137.40625 C 21.226562 136.964844 21.0625 136.503906 20.898438 136.058594 L 17.570312 126.957031 C 16.671875 124.507812 15.777344 122.058594 14.882812 119.609375 L 14.8125 119.417969 C 14.226562 117.820312 13.621094 116.167969 13.757812 114.484375 C 13.878906 113.003906 14.601562 111.769531 15.691406 111.183594 C 17.238281 110.351562 19.128906 110.953125 20.277344 111.722656 C 21.769531 112.722656 22.808594 114.265625 23.808594 115.757812 L 23.886719 115.871094 C 24.015625 116.0625 24.222656 116.1875 24.4375 116.203125 C 24.640625 116.21875 24.828125 116.140625 24.96875 115.988281 C 25.277344 115.652344 25.203125 115.113281 24.976562 114.777344 C 24.304688 113.777344 23.496094 112.632812 22.558594 111.640625 C 22.679688 111.417969 22.714844 111.109375 22.5625 110.796875 C 22.039062 109.726562 21.675781 108.621094 21.484375 107.507812 C 21.320312 106.5625 21.265625 105.574219 21.207031 104.621094 C 21.191406 104.347656 21.175781 104.078125 21.160156 103.808594 L 21.152344 103.679688 C 21.0625 102.363281 20.945312 100.585938 19.945312 99.550781 L 20.636719 98.71875 C 20.847656 98.460938 20.882812 97.992188 20.71875 97.625 C 20.589844 97.347656 20.363281 97.183594 20.09375 97.175781 C 19.664062 97.164062 19.261719 97.078125 18.894531 96.917969 C 18.980469 96.496094 18.792969 96.058594 18.425781 95.828125 L 17.066406 94.980469 L 19.152344 90.707031 C 19.289062 90.429688 19.257812 89.996094 19.078125 89.699219 C 18.945312 89.472656 18.742188 89.34375 18.507812 89.335938 L 17.171875 89.277344 C 17.84375 88.3125 18.214844 87.152344 18.222656 85.988281 C 18.292969 86.019531 18.367188 86.039062 18.4375 86.039062 C 18.613281 86.039062 18.785156 85.945312 18.917969 85.769531 C 19.351562 85.183594 19.523438 84.496094 19.398438 83.78125 C 19.230469 82.785156 18.492188 81.742188 17.476562 81.0625 C 16.800781 80.609375 16.015625 80.390625 15.253906 80.175781 C 14.367188 79.929688 13.527344 79.695312 12.867188 79.125 C 12.269531 78.609375 12.179688 77.875 12.230469 76.933594 C 12.242188 76.722656 12.257812 76.507812 12.277344 76.300781 C 12.332031 75.546875 12.390625 74.769531 12.246094 73.988281 C 11.890625 72.097656 10.359375 70.9375 9.234375 70.230469 C 8.910156 70.027344 8.570312 69.828125 8.238281 69.640625 C 7.238281 69.0625 6.199219 68.46875 5.5 67.566406 C 4.613281 66.425781 4.246094 64.808594 4.488281 63.128906 C 4.625 62.203125 4.925781 61.304688 5.378906 60.457031 C 5.558594 60.46875 5.742188 60.414062 5.878906 60.292969 C 6.101562 60.105469 6.179688 59.800781 6.101562 59.457031 C 6.09375 59.421875 6.085938 59.386719 6.078125 59.355469 C 7.222656 57.800781 8.929688 56.410156 11.292969 55.105469 C 12.511719 54.429688 13.804688 53.824219 15.058594 53.238281 C 17.90625 51.90625 20.851562 50.523438 23.1875 48.226562 C 23.542969 47.875 23.433594 47.234375 23.09375 46.890625 C 22.804688 46.597656 22.417969 46.59375 22.128906 46.878906 C 19.941406 49.03125 17.101562 50.347656 14.355469 51.621094 C 13.433594 52.046875 12.480469 52.488281 11.566406 52.957031 C 9.125 54.203125 7.328125 55.453125 5.972656 56.859375 C 6.148438 55.398438 6.722656 53.921875 7.652344 52.546875 C 8.953125 50.617188 10.90625 48.957031 13.621094 47.472656 C 15.671875 46.351562 17.878906 45.4375 20.011719 44.550781 C 20.503906 44.347656 20.996094 44.140625 21.484375 43.9375 L 40.441406 35.949219 C 40.875 35.765625 40.929688 35.234375 40.757812 34.832031 C 40.558594 34.363281 40.136719 34.152344 39.734375 34.324219 L 38.355469 34.902344 C 38.3125 34.613281 38.144531 34.339844 37.875 34.167969 C 37.613281 34 37.453125 33.742188 37.390625 33.40625 C 37.292969 32.875 37.476562 32.164062 37.835938 31.675781 C 38.722656 30.476562 40.445312 30.089844 41.703125 29.804688 C 44.253906 29.230469 46.851562 28.667969 49.363281 28.121094 C 50.617188 27.851562 51.867188 27.578125 53.117188 27.304688 C 53.359375 27.253906 53.539062 27.089844 53.621094 26.847656 C 53.695312 26.625 53.683594 26.347656 53.59375 26.113281 L 66.914062 22.78125 C 67.660156 22.59375 68.410156 22.40625 69.15625 22.21875 C 70.769531 21.8125 72.4375 21.390625 74.082031 20.992188 C 76.078125 20.507812 78.226562 20.050781 80.398438 19.953125 C 82.945312 19.835938 85.140625 20.324219 86.929688 21.40625 C 87.089844 21.503906 87.273438 21.515625 87.445312 21.445312 C 87.6875 21.34375 87.84375 21.089844 87.894531 20.882812 C 87.992188 20.460938 87.800781 20.007812 87.425781 19.78125 C 83.566406 17.453125 78.910156 18.0625 74.859375 18.96875 C 71.476562 19.730469 68.058594 20.605469 64.75 21.457031 C 63.253906 21.839844 61.710938 22.234375 60.191406 22.617188 L 51.746094 24.726562 C 51.515625 24.785156 51.34375 24.945312 51.257812 25.179688 C 51.183594 25.390625 51.191406 25.644531 51.265625 25.875 L 42.242188 27.851562 C 39.828125 28.378906 36.523438 29.105469 35.964844 32.136719 C 35.722656 33.457031 36.109375 34.699219 36.980469 35.484375 L 21.300781 42.089844 C 20.648438 42.367188 19.964844 42.644531 19.304688 42.914062 C 14.523438 44.863281 9.574219 46.878906 6.621094 51.140625 C 4.964844 53.535156 4.210938 56.222656 4.492188 58.722656 C 4.0625 59.402344 3.71875 60.113281 3.476562 60.839844 C 2.902344 62.539062 2.800781 64.363281 3.191406 65.96875 C 3.621094 67.722656 4.609375 69.1875 6.046875 70.195312 C 6.539062 70.539062 7.066406 70.847656 7.578125 71.140625 C 8.40625 71.621094 9.261719 72.113281 9.949219 72.773438 C 10.480469 73.28125 10.78125 73.871094 10.847656 74.527344 C 10.898438 75.050781 10.851562 75.574219 10.804688 76.128906 C 10.765625 76.535156 10.730469 76.953125 10.734375 77.375 C 10.753906 78.621094 11.164062 79.671875 11.921875 80.40625 C 12.605469 81.070312 13.519531 81.417969 14.40625 81.695312 C 14.601562 81.757812 14.800781 81.8125 14.996094 81.867188 C 15.71875 82.070312 16.464844 82.28125 17.042969 82.742188 C 17.433594 83.050781 18.289062 83.835938 17.8125 84.472656 C 17.757812 84.546875 17.71875 84.625 17.695312 84.710938 C 17.632812 84.683594 17.570312 84.664062 17.5 84.652344 C 17.3125 84.628906 17.132812 84.6875 16.988281 84.820312 C 16.816406 84.980469 16.71875 85.238281 16.730469 85.480469 C 16.832031 87.011719 16.054688 88.464844 14.707031 89.273438 C 14.363281 89.480469 14.300781 89.953125 14.390625 90.300781 C 14.488281 90.691406 14.753906 90.941406 15.085938 90.957031 L 17.207031 91.050781 L 15.691406 94.152344 C 15.59375 94.351562 15.582031 94.59375 15.660156 94.835938 C 15.59375 94.929688 15.542969 95.035156 15.519531 95.144531 C 15.429688 95.570312 15.621094 96.007812 15.988281 96.242188 L 16.691406 96.679688 C 16.660156 97.015625 16.824219 97.335938 17.011719 97.539062 C 17.4375 98.003906 17.960938 98.371094 18.542969 98.613281 L 18.164062 99.070312 C 17.980469 99.292969 17.921875 99.664062 18.015625 99.992188 C 18.09375 100.273438 18.273438 100.480469 18.503906 100.5625 C 19.035156 100.742188 19.332031 101.175781 19.507812 102.019531 C 19.648438 102.714844 19.6875 103.457031 19.722656 104.171875 C 19.734375 104.421875 19.746094 104.679688 19.761719 104.929688 C 19.863281 106.476562 20.054688 108.261719 20.65625 110.039062 C 19.332031 109.191406 17.96875 108.875 16.511719 109.070312 C 14.855469 109.292969 13.460938 110.425781 12.777344 112.097656 C 12.148438 113.644531 12.105469 115.46875 12.652344 117.523438 C 13.046875 119.019531 13.605469 120.492188 14.148438 121.917969 C 14.335938 122.40625 14.527344 122.910156 14.707031 123.410156 L 19.171875 135.613281 C 19.375 136.167969 19.578125 136.734375 19.773438 137.28125 C 20.257812 138.628906 20.753906 140.027344 21.308594 141.375 C 21.910156 142.839844 22.925781 144.925781 24.785156 146.152344 C 25.800781 146.820312 26.894531 147.160156 27.949219 147.160156 C 28.703125 147.160156 29.433594 146.984375 30.09375 146.628906 C 30.53125 146.398438 30.554688 145.804688 30.332031 145.386719 C 30.109375 144.976562 29.714844 144.828125 29.347656 145.023438 " fill-opacity="1" fill-rule="nonzero"/></g><path fill="#040606" d="M 51.65625 35.894531 C 51.246094 35.964844 51.019531 36.363281 51.109375 36.863281 C 51.1875 37.320312 51.523438 37.734375 52.011719 37.648438 C 60.855469 36.113281 70.222656 38.21875 77.714844 43.425781 C 79.859375 44.921875 81.789062 46.621094 83.460938 48.480469 C 83.644531 48.6875 83.84375 48.769531 84.027344 48.769531 C 84.1875 48.769531 84.339844 48.707031 84.449219 48.605469 C 84.765625 48.324219 84.867188 47.734375 84.507812 47.335938 C 78.203125 40.300781 69.105469 35.964844 59.554688 35.4375 C 56.898438 35.289062 54.242188 35.445312 51.65625 35.894531 " fill-opacity="1" fill-rule="nonzero"/><path fill="#040606" d="M 36.394531 45.496094 C 39.707031 44.179688 43.238281 43.746094 46.609375 44.230469 C 46.851562 44.265625 47.058594 44.1875 47.203125 44.007812 C 47.390625 43.765625 47.425781 43.351562 47.285156 43 C 47.164062 42.699219 46.941406 42.503906 46.667969 42.464844 C 43.457031 42 40.0625 42.335938 36.859375 43.433594 C 33.714844 44.507812 30.8125 46.296875 28.464844 48.601562 C 23.699219 53.285156 21.546875 60.25 22.707031 67.230469 C 23.355469 71.136719 25 74.730469 27.460938 77.613281 C 27.640625 77.824219 27.851562 77.933594 28.054688 77.933594 C 28.195312 77.933594 28.332031 77.882812 28.453125 77.777344 C 28.730469 77.542969 28.796875 77.164062 28.644531 76.703125 C 27.332031 72.726562 27.816406 68.074219 29.9375 64.253906 C 31.957031 60.613281 35.550781 57.90625 39.792969 56.824219 C 42.1875 56.214844 44.601562 56.15625 46.972656 56.644531 C 47.203125 56.691406 47.40625 56.628906 47.550781 56.46875 C 47.777344 56.214844 47.777344 55.796875 47.675781 55.496094 C 47.566406 55.164062 47.34375 54.941406 47.058594 54.882812 C 44.824219 54.421875 42.417969 54.433594 40.109375 54.914062 C 37.820312 55.394531 35.613281 56.339844 33.71875 57.644531 C 29.851562 60.320312 27.261719 64.613281 26.605469 69.417969 C 26.414062 70.835938 26.394531 72.261719 26.539062 73.671875 C 23.996094 69.253906 23.21875 63.761719 24.460938 58.753906 C 25.929688 52.835938 30.390625 47.875 36.394531 45.496094 " fill-opacity="1" fill-rule="nonzero"/><path fill="#040606" d="M 89.210938 32.359375 C 87.117188 31.429688 84.796875 30.824219 82.3125 30.550781 C 79.710938 30.265625 76.867188 30.335938 73.863281 30.757812 C 73.625 30.789062 73.445312 30.933594 73.351562 31.164062 C 73.222656 31.484375 73.292969 31.929688 73.527344 32.222656 C 73.699219 32.445312 73.945312 32.550781 74.207031 32.515625 C 79.421875 31.78125 84.011719 32.152344 87.851562 33.621094 C 91.964844 35.191406 95.136719 38.0625 96.777344 41.707031 C 97.730469 43.816406 98.058594 46.035156 97.738281 48.125 C 97.675781 48.515625 97.804688 49.027344 98.234375 49.222656 C 98.320312 49.265625 98.414062 49.285156 98.507812 49.285156 C 98.609375 49.285156 98.714844 49.257812 98.808594 49.210938 C 99.007812 49.105469 99.144531 48.902344 99.179688 48.675781 C 99.835938 44.449219 98.324219 39.992188 95.035156 36.445312 C 93.457031 34.75 91.5 33.371094 89.210938 32.359375 " fill-opacity="1" fill-rule="nonzero"/><path fill="#040606" d="M 91.753906 45.230469 C 91.871094 45.421875 92.070312 45.546875 92.289062 45.566406 C 92.3125 45.570312 92.335938 45.570312 92.355469 45.570312 C 92.539062 45.570312 92.714844 45.496094 92.84375 45.355469 C 93.152344 45.019531 93.074219 44.507812 92.855469 44.152344 C 89.828125 39.1875 84.777344 35.488281 78.996094 34.003906 C 77.382812 33.589844 75.71875 33.367188 74.046875 33.332031 C 73.625 33.324219 73.316406 33.660156 73.308594 34.152344 C 73.300781 34.605469 73.558594 35.09375 74.046875 35.105469 C 79.5625 35.210938 84.980469 37.5625 88.90625 41.554688 C 89.96875 42.632812 90.925781 43.871094 91.753906 45.230469 " fill-opacity="1" fill-rule="nonzero"/><path fill="#040606" d="M 78.035156 63.472656 C 77.921875 63.472656 77.8125 63.472656 77.699219 63.464844 C 77.285156 63.441406 76.980469 63.746094 76.953125 64.222656 C 76.925781 64.699219 77.191406 65.207031 77.679688 65.234375 C 77.816406 65.242188 77.953125 65.246094 78.09375 65.246094 C 79.765625 65.246094 81.433594 64.679688 82.828125 63.628906 C 84.328125 62.496094 85.382812 60.902344 85.800781 59.136719 C 85.925781 58.609375 85.539062 58.089844 85.125 57.988281 C 84.851562 57.925781 84.488281 58.035156 84.367188 58.550781 C 83.699219 61.367188 80.957031 63.472656 78.035156 63.472656 " fill-opacity="1" fill-rule="nonzero"/><path fill="#040606" d="M 82.4375 56.613281 C 82.265625 56.46875 82.050781 56.429688 81.835938 56.511719 C 77.914062 57.960938 73.832031 58.574219 69.707031 58.332031 C 69.453125 58.320312 69.238281 58.425781 69.101562 58.628906 C 68.917969 58.90625 68.910156 59.335938 69.078125 59.671875 C 69.207031 59.929688 69.429688 60.089844 69.6875 60.105469 C 70.308594 60.140625 70.929688 60.160156 71.550781 60.160156 C 75.234375 60.160156 78.832031 59.515625 82.277344 58.246094 C 82.53125 58.148438 82.707031 57.921875 82.761719 57.617188 C 82.824219 57.242188 82.691406 56.816406 82.4375 56.613281 " fill-opacity="1" fill-rule="nonzero"/><path fill="#040606" d="M 104.578125 60.585938 C 104.730469 60.585938 104.867188 60.523438 104.972656 60.4375 C 105.300781 60.164062 105.414062 59.554688 105.074219 59.144531 C 103.039062 56.707031 99.507812 55.914062 96.679688 57.257812 C 96.25 57.460938 96.203125 58.019531 96.402344 58.4375 C 96.613281 58.875 97.023438 59.054688 97.40625 58.875 C 99.589844 57.835938 102.492188 58.453125 104.011719 60.273438 C 104.199219 60.5 104.398438 60.585938 104.578125 60.585938 " fill-opacity="1" fill-rule="nonzero"/><path fill="#040606" d="M 103.367188 61.761719 L 98.023438 59.90625 C 97.773438 59.820312 97.535156 59.855469 97.359375 60.007812 C 97.136719 60.199219 97.035156 60.5625 97.101562 60.914062 C 97.164062 61.238281 97.351562 61.476562 97.617188 61.570312 L 102.964844 63.425781 C 103.050781 63.457031 103.136719 63.472656 103.21875 63.472656 C 103.5 63.472656 103.738281 63.296875 103.847656 62.988281 C 104.003906 62.542969 103.84375 61.929688 103.367188 61.761719 " fill-opacity="1" fill-rule="nonzero"/><g clip-path="url(#f4d6d2cbbd)"><path fill="#040606" d="M 81.671875 16.683594 L 98.828125 24.152344 C 99.0625 24.253906 99.289062 24.238281 99.464844 24.109375 C 99.6875 23.945312 99.804688 23.613281 99.765625 23.257812 C 99.722656 22.902344 99.539062 22.621094 99.269531 22.503906 L 89.976562 18.457031 C 92.476562 18.863281 95.007812 19.160156 97.523438 19.347656 C 98.050781 19.390625 98.582031 19.425781 99.117188 19.460938 C 103.378906 19.753906 107.789062 20.058594 111.640625 22.03125 C 113.601562 23.035156 115.148438 24.34375 116.238281 25.917969 C 115.027344 25.421875 113.800781 24.941406 112.460938 24.417969 C 112.085938 24.269531 111.734375 24.425781 111.589844 24.800781 C 111.410156 25.25 111.566406 25.890625 112.039062 26.074219 C 116.09375 27.660156 120.285156 29.296875 124.074219 31.585938 C 126.132812 32.828125 127.761719 34.054688 129.054688 35.335938 C 130.625 36.890625 131.570312 38.503906 131.863281 40.125 C 132.222656 42.09375 131.601562 44.082031 130.289062 45.183594 C 130.058594 45.378906 129.960938 45.714844 130.027344 46.089844 C 130.09375 46.460938 130.300781 46.761719 130.558594 46.851562 C 130.617188 46.875 130.675781 46.886719 130.738281 46.886719 C 130.867188 46.886719 130.996094 46.835938 131.113281 46.738281 C 132.59375 45.496094 133.417969 43.621094 133.441406 41.464844 C 133.460938 39.457031 132.726562 37.417969 131.3125 35.558594 C 130.128906 34.011719 128.523438 32.574219 126.253906 31.039062 C 124.421875 29.800781 122.382812 28.664062 120.023438 27.5625 C 119.347656 27.246094 118.621094 26.921875 117.820312 26.578125 C 118.042969 26.234375 117.929688 25.785156 117.753906 25.488281 C 116.6875 23.675781 115.113281 22.148438 113.085938 20.941406 C 111.328125 19.894531 109.273438 19.109375 106.972656 18.613281 C 104.40625 18.054688 101.75 17.871094 99.179688 17.695312 L 99.003906 17.683594 C 95.890625 17.46875 93.339844 17.203125 90.96875 16.84375 C 87.976562 16.390625 84.941406 15.765625 81.949219 14.980469 C 81.621094 14.894531 81.34375 15.042969 81.230469 15.375 C 81.074219 15.8125 81.242188 16.496094 81.671875 16.683594 " fill-opacity="1" fill-rule="nonzero"/></g><g clip-path="url(#3c512f4807)"><path fill="#040606" d="M 123.351562 52.21875 C 122.871094 52.402344 122.761719 53.015625 122.9375 53.480469 C 123.09375 53.898438 123.441406 54.085938 123.796875 53.953125 L 123.835938 53.9375 C 127.34375 52.605469 130.96875 51.226562 133.988281 48.886719 C 136.992188 46.554688 138.945312 43.472656 139.480469 40.207031 C 139.558594 39.738281 139.605469 39.273438 139.617188 38.808594 C 140.523438 41.671875 141.261719 45.121094 140.722656 48.578125 C 140.082031 52.683594 137.519531 56.085938 133.6875 57.910156 C 131.667969 58.867188 129.464844 59.269531 127.304688 59.066406 C 126.902344 59.027344 126.597656 59.308594 126.554688 59.761719 C 126.511719 60.242188 126.773438 60.789062 127.269531 60.835938 C 129.804688 61.074219 132.453125 60.539062 134.808594 59.324219 L 133.65625 61.820312 C 133.476562 62.207031 133.578125 62.691406 133.902344 63.003906 L 136.890625 65.886719 L 134.363281 66.816406 C 134.117188 66.90625 133.933594 67.117188 133.863281 67.394531 C 133.785156 67.699219 133.859375 68.03125 134.054688 68.253906 L 136.46875 71.015625 C 135.285156 72.035156 134.597656 73.589844 134.667969 75.125 C 134.738281 76.761719 135.5625 78.28125 136.878906 79.234375 C 136.457031 80.582031 136.621094 82.136719 137.308594 83.40625 L 135.777344 83.507812 C 135.582031 83.519531 135.421875 83.625 135.320312 83.800781 C 135.15625 84.082031 135.171875 84.527344 135.289062 84.761719 L 136.691406 87.621094 L 132.367188 109.097656 C 132.289062 109.492188 132.449219 110.015625 132.863281 110.203125 C 132.929688 110.234375 132.996094 110.253906 133.066406 110.261719 C 133.144531 110.296875 133.226562 110.3125 133.3125 110.3125 C 133.578125 110.3125 133.792969 110.1875 133.925781 109.957031 C 134.082031 109.683594 134.085938 109.289062 133.945312 108.984375 L 138.148438 88.109375 C 138.265625 87.519531 138.125 87.171875 137.882812 86.675781 L 137.15625 85.199219 L 139.09375 85.070312 C 139.351562 85.054688 139.546875 84.898438 139.628906 84.640625 C 139.75 84.265625 139.605469 83.699219 139.332031 83.476562 C 138.117188 82.488281 137.78125 80.761719 138.535156 79.375 C 138.648438 79.164062 138.664062 78.890625 138.578125 78.625 C 138.496094 78.363281 138.328125 78.15625 138.113281 78.054688 C 136.929688 77.484375 136.15625 76.332031 136.144531 75.121094 C 136.132812 73.890625 136.882812 72.679688 138.058594 72.035156 C 138.242188 71.933594 138.367188 71.746094 138.410156 71.5 C 138.464844 71.199219 138.382812 70.859375 138.210938 70.664062 L 135.984375 68.117188 L 138.640625 67.136719 C 138.902344 67.039062 139.082031 66.835938 139.140625 66.558594 C 139.210938 66.214844 139.085938 65.816406 138.832031 65.570312 L 135.265625 62.132812 L 136.429688 59.613281 C 136.535156 59.386719 136.53125 59.113281 136.417969 58.84375 C 136.363281 58.714844 136.289062 58.597656 136.203125 58.5 C 137.175781 57.847656 138.0625 57.085938 138.839844 56.230469 C 140.449219 54.449219 141.523438 52.261719 142.023438 49.71875 C 142.464844 47.480469 142.457031 45.03125 142 42.441406 C 141.449219 39.300781 140.351562 36.289062 139.355469 33.757812 C 139.265625 33.53125 139.078125 33.34375 138.855469 33.265625 C 138.675781 33.203125 138.488281 33.21875 138.324219 33.316406 C 138.097656 33.445312 137.972656 33.695312 137.96875 33.996094 C 137.832031 34.03125 137.707031 34.109375 137.605469 34.226562 C 137.375 34.492188 137.332031 34.871094 137.488281 35.210938 C 138.632812 37.714844 138.265625 40.820312 136.480469 43.726562 C 134.972656 46.179688 132.542969 48.15625 128.820312 49.953125 C 126.984375 50.839844 125.054688 51.574219 123.351562 52.21875 " fill-opacity="1" fill-rule="nonzero"/></g><path fill="#040606" d="M 82.148438 148.640625 L 81.949219 151.996094 C 81.929688 152.335938 82.074219 152.636719 82.332031 152.808594 C 82.460938 152.890625 82.605469 152.933594 82.746094 152.933594 C 82.847656 152.933594 82.945312 152.910156 83.035156 152.867188 C 83.171875 152.800781 83.402344 152.617188 83.429688 152.171875 L 83.628906 148.8125 C 83.660156 148.265625 83.261719 147.902344 82.875 147.878906 C 82.535156 147.855469 82.179688 148.085938 82.148438 148.640625 " fill-opacity="1" fill-rule="nonzero"/><path fill="#040606" d="M 101.113281 109.542969 C 100.839844 109.871094 99.921875 110.570312 98.972656 109.839844 C 98.847656 109.742188 98.753906 109.546875 98.675781 109.390625 C 98.652344 109.34375 98.632812 109.304688 98.613281 109.265625 C 98.824219 109.175781 99.050781 109.09375 99.289062 109.011719 L 99.296875 109.007812 C 100.070312 108.707031 101.003906 108.65625 101.253906 109.144531 C 101.25 109.234375 101.175781 109.46875 101.113281 109.542969 Z M 98.71875 111.378906 C 99.253906 111.738281 99.898438 111.808594 100.554688 111.574219 C 101.042969 111.394531 102.226562 110.878906 102.617188 109.898438 C 102.808594 109.421875 102.785156 108.875 102.570312 108.421875 C 103.441406 108.371094 104.347656 108.386719 105.261719 108.464844 C 105.261719 108.472656 105.265625 108.480469 105.265625 108.492188 C 105.523438 109.429688 105.394531 110.40625 104.902344 111.25 C 104.402344 112.113281 103.59375 112.722656 102.625 112.976562 C 101.613281 113.238281 100.601562 113.109375 99.769531 112.613281 C 99.265625 112.308594 98.890625 111.863281 98.71875 111.378906 Z M 116.75 112.664062 C 117.0625 112.882812 117.3125 112.820312 117.4375 112.765625 C 117.671875 112.65625 117.835938 112.386719 117.863281 112.0625 C 117.898438 111.710938 117.765625 111.398438 117.511719 111.21875 C 114.503906 109.109375 111.171875 107.699219 107.617188 107.039062 C 103.152344 106.207031 99.53125 106.574219 96.855469 108.132812 C 95.195312 109.097656 93.941406 110.527344 93.324219 112.160156 C 93.316406 112.183594 93.308594 112.207031 93.300781 112.230469 C 93.152344 112.246094 93.015625 112.300781 92.894531 112.386719 C 92.585938 112.609375 92.40625 112.976562 92.417969 113.367188 C 92.421875 113.601562 92.496094 113.820312 92.617188 113.988281 C 92.726562 114.136719 92.921875 114.300781 93.144531 114.320312 C 93.214844 114.324219 93.285156 114.320312 93.351562 114.304688 C 93.433594 114.546875 93.59375 114.738281 93.804688 114.832031 C 96.675781 116.066406 99.855469 116.710938 103.035156 116.710938 C 103.199219 116.710938 103.359375 116.710938 103.523438 116.707031 C 106.863281 116.636719 110.195312 115.847656 113.160156 114.429688 C 113.382812 114.320312 113.527344 114.097656 113.546875 113.816406 C 113.578125 113.453125 113.394531 113.050781 113.117188 112.859375 C 112.90625 112.71875 112.664062 112.699219 112.429688 112.8125 C 106.886719 115.472656 100.214844 115.648438 94.523438 113.296875 C 94.578125 113.238281 94.617188 113.171875 94.648438 113.09375 C 95.125 111.832031 95.988281 110.789062 97.210938 109.996094 C 96.984375 111.289062 97.417969 112.621094 98.40625 113.585938 C 99.457031 114.609375 101.015625 115.070312 102.574219 114.816406 C 103.964844 114.589844 105.167969 113.808594 105.964844 112.613281 C 106.742188 111.449219 107.039062 110.019531 106.800781 108.652344 C 108.464844 108.914062 110.128906 109.367188 111.757812 110 C 113.542969 110.695312 115.222656 111.59375 116.75 112.664062 " fill-opacity="1" fill-rule="nonzero"/><path fill="#040606" d="M 55.535156 110.664062 C 56.453125 110.917969 57.773438 110.753906 58.527344 109.949219 C 59.230469 109.199219 59.171875 108.144531 58.707031 107.367188 C 59.792969 107.441406 60.855469 107.628906 61.875 107.921875 C 61.878906 107.929688 61.878906 107.9375 61.878906 107.945312 C 62.058594 109.019531 61.734375 110.128906 60.988281 110.988281 C 60.195312 111.898438 59.074219 112.402344 57.90625 112.375 C 56.714844 112.347656 55.621094 111.804688 54.902344 110.890625 C 54.59375 110.496094 54.375 110.058594 54.25 109.597656 C 54.5 110.113281 54.972656 110.507812 55.535156 110.664062 Z M 55.492188 109.066406 C 55.488281 109.070312 55.484375 109.074219 55.480469 109.082031 C 55.457031 109.066406 55.433594 109.054688 55.414062 109.035156 C 55.375 109.007812 55.355469 108.980469 55.339844 108.960938 Z M 57.550781 108.507812 C 57.355469 108.851562 56.746094 108.953125 56.496094 108.976562 C 56.273438 109 56.046875 108.992188 55.839844 108.949219 C 55.746094 108.933594 55.65625 108.914062 55.59375 108.878906 C 55.699219 108.636719 55.703125 108.363281 55.605469 108.117188 C 56.0625 107.964844 56.535156 107.863281 56.96875 107.96875 C 57.195312 108.023438 57.488281 108.191406 57.5625 108.355469 C 57.585938 108.40625 57.582031 108.453125 57.550781 108.507812 Z M 54.25 108.007812 C 54.210938 108.085938 54.179688 108.160156 54.152344 108.242188 C 54.164062 108.132812 54.183594 108.027344 54.203125 107.921875 C 54.21875 107.953125 54.230469 107.980469 54.25 108.007812 Z M 67.53125 111.929688 C 67.566406 111.988281 67.609375 112.042969 67.660156 112.085938 L 67.484375 111.96875 C 67.496094 111.953125 67.511719 111.941406 67.53125 111.929688 Z M 67.648438 112.117188 L 67.640625 112.109375 L 67.660156 112.085938 C 67.65625 112.09375 67.652344 112.105469 67.648438 112.117188 Z M 67.054688 112.65625 C 61.933594 114.574219 56.179688 114.832031 50.859375 113.382812 C 49.386719 112.984375 47.910156 112.425781 46.46875 111.726562 C 46.117188 111.558594 45.789062 111.667969 45.621094 112.007812 C 45.414062 112.4375 45.539062 113.144531 46.011719 113.371094 C 49.722656 115.167969 53.859375 116.09375 58.011719 116.09375 C 59.597656 116.09375 61.1875 115.960938 62.753906 115.683594 C 64.351562 115.40625 65.949219 114.96875 67.496094 114.390625 C 67.773438 114.289062 67.949219 114.027344 67.984375 113.699219 C 68.0625 113.683594 68.136719 113.65625 68.203125 113.613281 C 68.265625 113.574219 68.324219 113.527344 68.386719 113.472656 L 68.421875 113.449219 C 68.519531 113.371094 68.597656 113.273438 68.65625 113.15625 C 68.90625 112.765625 68.976562 112.242188 68.855469 111.757812 C 69.023438 111.703125 69.175781 111.574219 69.269531 111.394531 C 69.480469 110.972656 69.308594 110.476562 69.027344 110.207031 C 66.582031 107.839844 63.382812 106.246094 60.023438 105.722656 C 56.789062 105.214844 53.261719 105.734375 49.242188 107.304688 C 47.261719 108.078125 45.347656 109 43.402344 109.957031 C 42.96875 110.167969 42.925781 110.734375 43.132812 111.15625 C 43.347656 111.585938 43.757812 111.753906 44.132812 111.570312 C 46.71875 110.300781 49.640625 108.867188 52.667969 108.035156 C 52.476562 110.378906 53.75 112.699219 55.789062 113.648438 C 58.191406 114.761719 61.0625 113.964844 62.472656 111.789062 C 63.121094 110.789062 63.4375 109.640625 63.394531 108.449219 C 63.527344 108.503906 63.65625 108.558594 63.785156 108.617188 C 65.085938 109.195312 66.300781 109.953125 67.398438 110.871094 C 67.34375 110.929688 67.296875 110.996094 67.257812 111.074219 C 67.109375 111.386719 67.15625 111.792969 67.355469 112.082031 C 67.195312 112.226562 67.101562 112.425781 67.082031 112.648438 C 67.074219 112.652344 67.0625 112.65625 67.054688 112.65625 " fill-opacity="1" fill-rule="nonzero"/><g clip-path="url(#084f2f95cc)"><path fill="#040606" d="M 84.683594 207.746094 C 84.476562 207.617188 84.242188 207.613281 84.019531 207.730469 C 83.125 208.207031 82.445312 208.949219 81.785156 209.667969 C 81.046875 210.46875 80.355469 211.226562 79.394531 211.636719 C 77.136719 212.601562 74.964844 210.925781 72.933594 209.128906 C 72.664062 208.886719 72.421875 208.917969 72.308594 208.957031 C 72.085938 209.027344 71.917969 209.253906 71.851562 209.554688 C 71.773438 209.9375 71.886719 210.324219 72.128906 210.542969 C 73.886719 212.09375 75.902344 213.6875 78.144531 213.6875 C 78.601562 213.6875 79.070312 213.621094 79.550781 213.472656 C 80.855469 213.070312 81.742188 212.121094 82.597656 211.203125 C 83.25 210.507812 83.921875 209.785156 84.761719 209.335938 C 84.992188 209.214844 85.128906 208.976562 85.140625 208.679688 C 85.152344 208.300781 84.960938 207.917969 84.683594 207.746094 " fill-opacity="1" fill-rule="nonzero"/></g><path fill="#040606" d="M 102.40625 94.722656 C 102.582031 94.910156 102.820312 94.96875 103.054688 94.878906 C 108.917969 92.683594 115.601562 94.285156 119.695312 98.863281 C 120.460938 99.71875 121.125 100.660156 121.675781 101.671875 C 118.015625 99.75 113.855469 98.535156 109.59375 98.148438 C 105.117188 97.742188 100.535156 98.25 96.339844 99.613281 C 94.070312 100.351562 91.902344 101.332031 89.894531 102.535156 L 88.933594 98.964844 C 88.964844 98.976562 88.996094 98.988281 89.03125 99.003906 C 89.300781 99.105469 89.640625 99.230469 89.964844 99.082031 C 90.203125 98.972656 90.421875 98.78125 90.636719 98.597656 C 90.726562 98.515625 90.816406 98.4375 90.898438 98.375 L 95.191406 95.09375 C 95.234375 95.0625 95.277344 95.027344 95.320312 94.996094 C 95.578125 94.792969 95.789062 94.632812 96.089844 94.5625 C 96.304688 94.511719 96.53125 94.480469 96.753906 94.449219 C 96.871094 94.433594 96.984375 94.417969 97.101562 94.402344 L 102.160156 93.589844 C 102.058594 93.898438 102.136719 94.4375 102.40625 94.722656 Z M 122.894531 103.992188 C 123.105469 103.902344 123.28125 103.683594 123.335938 103.4375 C 123.355469 103.363281 123.363281 103.289062 123.363281 103.214844 C 123.667969 102.964844 123.699219 102.464844 123.542969 102.109375 C 122.257812 99.167969 120.148438 96.664062 117.449219 94.863281 C 114.734375 93.0625 111.621094 92.109375 108.4375 92.109375 C 108.421875 92.109375 108.40625 92.109375 108.390625 92.109375 C 106.984375 92.113281 105.601562 92.285156 104.277344 92.625 C 104.292969 92.363281 104.214844 92.078125 104.058594 91.871094 C 103.886719 91.644531 103.636719 91.542969 103.367188 91.585938 L 95.820312 92.792969 C 95.335938 92.871094 95.128906 92.957031 94.75 93.246094 L 89.644531 97.148438 C 89.617188 97.171875 89.585938 97.195312 89.558594 97.21875 C 89.503906 97.261719 89.425781 97.328125 89.394531 97.335938 C 89.34375 97.335938 89.195312 97.273438 89.125 97.246094 C 89.066406 97.21875 89.011719 97.195312 88.964844 97.183594 L 87.90625 96.859375 C 87.707031 96.800781 87.519531 96.847656 87.371094 96.988281 C 87.136719 97.210938 87.058594 97.640625 87.128906 97.902344 L 88.617188 103.40625 C 88.691406 103.675781 88.878906 104 89.183594 104.101562 C 89.292969 104.304688 89.453125 104.453125 89.632812 104.511719 C 89.683594 104.527344 89.746094 104.539062 89.816406 104.539062 C 89.917969 104.539062 90.039062 104.515625 90.164062 104.433594 C 97.496094 99.847656 106.984375 98.574219 115.550781 101.027344 C 117.914062 101.707031 120.207031 102.691406 122.375 103.957031 C 122.539062 104.054688 122.722656 104.066406 122.894531 103.992188 " fill-opacity="1" fill-rule="nonzero"/></svg>